<?xml version="1.0" encoding="utf-8"?>
<!-- Generator: Adobe Illustrator 27.5.0, SVG Export Plug-In . SVG Version: 6.00 Build 0)  -->
<svg version="1.1" xmlns="http://www.w3.org/2000/svg" xmlns:xlink="http://www.w3.org/1999/xlink" x="0px" y="0px"
	 viewBox="0 0 500 500" style="enable-background:new 0 0 500 500;" xml:space="preserve">
<g id="BACKGROUND">
	<rect style="fill:#FFFFFF;" width="500" height="500"/>
</g>
<g id="OBJECTS">
	<g>
		<g>
			<path style="fill:#E5E5E5;" d="M486.062,450.524c0,7.926-102.523,12.989-228.992,12.989S28.078,458.45,28.078,450.524
				c0-7.926,102.523-11.627,228.992-11.627S486.062,442.598,486.062,450.524z"/>
			<g>
				<g>
					<path style="fill:#E5E5E5;" d="M439.008,179.647c-20.572,0-37.309-16.737-37.309-37.31c0-20.572,16.736-37.309,37.309-37.309
						c20.572,0,37.31,16.737,37.31,37.309C476.318,162.91,459.581,179.647,439.008,179.647z M439.008,109.005
						c-18.38,0-33.332,14.953-33.332,33.333s14.952,33.333,33.332,33.333c18.38,0,33.333-14.953,33.333-33.333
						S457.388,109.005,439.008,109.005z"/>
				</g>
				<g>
					<path style="fill:#E5E5E5;" d="M449.052,146.301h-11.306c-1.098,0-1.988-0.89-1.988-1.988v-20.616
						c0-1.098,0.891-1.988,1.988-1.988c1.098,0,1.988,0.89,1.988,1.988v18.627h9.317c1.098,0,1.988,0.89,1.988,1.988
						C451.041,145.411,450.15,146.301,449.052,146.301z"/>
				</g>
			</g>
			<g>
				<g>
					<path style="fill:#CCCCCC;" d="M194.559,440.229h-2.727c-1.187,0-2.15-0.962-2.15-2.15l-1.306-22.059
						c0-1.187,0.962-2.15,2.15-2.15h5.339c1.187,0,2.15,0.962,2.15,2.15l-1.306,22.059
						C196.708,439.267,195.746,440.229,194.559,440.229z"/>
					<path style="fill:#CCCCCC;" d="M215.014,433.411h-2.727c-1.187,0-2.15-0.963-2.15-2.15l-1.306-22.059
						c0-1.187,0.962-2.15,2.15-2.15h5.339c1.187,0,2.15,0.962,2.15,2.15l-1.306,22.059
						C217.164,432.448,216.202,433.411,215.014,433.411z"/>
					<path style="fill:#CCCCCC;" d="M441.673,440.229h2.727c1.187,0,2.15-0.962,2.15-2.15l1.306-22.059
						c0-1.187-0.962-2.15-2.15-2.15h-5.339c-1.187,0-2.15,0.962-2.15,2.15l1.306,22.059
						C439.523,439.267,440.486,440.229,441.673,440.229z"/>
					<path style="fill:#CCCCCC;" d="M421.217,433.411h2.727c1.187,0,2.15-0.963,2.15-2.15l1.306-22.059
						c0-1.187-0.962-2.15-2.15-2.15h-5.339c-1.187,0-2.15,0.962-2.15,2.15l1.306,22.059
						C419.068,432.448,420.03,433.411,421.217,433.411z"/>
				</g>
				<path style="fill:#E5E5E5;" d="M438.344,291.109c-29.658-10.468-83.18-16.755-120.228-15.388
					c-37.048-1.367-90.57,4.921-120.228,15.388c-29.714,10.487-23.422,44.397-23.422,44.397l13.634,81.453l129.803,6.969v0.023
					l0.213-0.011l0.213,0.011v-0.023l129.803-6.969l13.634-81.453C461.766,335.506,468.058,301.597,438.344,291.109z"/>
				<g>
					<path style="fill:#E5E5E5;" d="M173.123,327.116c0,0,15.032,8.39,22.373,32.511c7.341,24.121,5.593,37.056,5.593,37.056
						l-21.674-1.049L173.123,327.116z"/>
					<path style="fill:#E5E5E5;" d="M463.109,327.116c0,0-15.032,8.39-22.373,32.511c-7.341,24.121-5.593,37.056-5.593,37.056
						l21.674-1.049L463.109,327.116z"/>
				</g>
				<path style="fill:#CCCCCC;" d="M186.333,365.84c0,0,5.191-13.904,32.316-14.603c27.125-0.699,64.957-2.447,80.303,1.398
					s15.518,16.78,15.518,16.78L186.333,365.84z"/>
				<g>
					<path style="fill:#D6D6D6;" d="M191.924,362.091c4.755-1.007,90.363-1.931,112.916,1.234c1.81,0.254,3.654,0.557,5.266,1.418
						c4.698,2.511,5.828,8.625,6.389,13.923c0.646,6.092,1.025,12.929-2.924,17.612c-1.748,2.072-7.493,1.893-9.854,2.125
						c-7.097,0.697-14.251,0.907-21.377,1.068c-18.445,0.416-36.929,0.146-55.358-0.702c-10.722-0.494-24.979,0.458-34.8-4.02
						c-4.241-1.934-7.943-5.331-9.564-9.701c-1.101-2.969-1.204-6.231-0.821-9.374c0.412-3.384,1.414-6.778,3.487-9.485
						C187.097,363.822,189.393,362.627,191.924,362.091z"/>
				</g>
				<path style="fill:#CCCCCC;" d="M450.948,366.19c0,0-5.192-13.904-32.316-14.603c-27.125-0.699-64.957-2.447-80.303,1.398
					c-15.347,3.845-15.518,16.78-15.518,16.78L450.948,366.19z"/>
				<g>
					<path style="fill:#D6D6D6;" d="M444.308,362.091c-4.755-1.007-90.363-1.931-112.916,1.234c-1.81,0.254-3.654,0.557-5.266,1.418
						c-4.698,2.511-5.828,8.625-6.389,13.923c-0.646,6.092-1.025,12.929,2.924,17.612c1.748,2.072,7.493,1.893,9.854,2.125
						c7.097,0.697,14.251,0.907,21.377,1.068c18.445,0.416,36.929,0.146,55.358-0.702c10.722-0.494,24.979,0.458,34.8-4.02
						c4.241-1.934,7.943-5.331,9.564-9.701c1.101-2.969,1.204-6.231,0.821-9.374c-0.412-3.384-1.414-6.778-3.487-9.485
						C449.135,363.822,446.839,362.627,444.308,362.091z"/>
				</g>
				<path style="fill:#E5E5E5;" d="M485.188,338.652c-0.886-5.448-8.74-16.43-21.325-11.536
					c-12.585,4.894-3.812,47.077-15.382,63.274c-4.839,6.775-33.321,7.06-62.226,7.341c-32.986,0.321-66.636,0.014-68.112,0.001
					v-0.001c0,0-0.01,0-0.028,0c-0.018,0-0.028,0-0.028,0v0.001c-1.476,0.014-35.126,0.321-68.112-0.001
					c-28.904-0.281-57.386-0.566-62.226-7.341c-11.569-16.197-2.797-58.38-15.382-63.274c-12.585-4.894-20.439,6.088-21.325,11.536
					c-3.398,20.896,8.09,62.097,28.666,77.258c13.284,9.788,43.637,7.76,76.568,7.977c31.55,0.208,60.841-0.103,61.839-0.114
					c0.998,0.011,30.288,0.322,61.838,0.114c32.931-0.217,63.284,1.812,76.568-7.977
					C477.098,400.749,488.586,359.549,485.188,338.652z"/>
			</g>
			<g>
				<g>
					<path style="fill:#E5E5E5;" d="M86.177,191.616h-67.72c-1.02,0-1.847-0.827-1.847-1.846v-85.357
						c0-1.02,0.827-1.847,1.847-1.847h67.72c1.02,0,1.847,0.827,1.847,1.847v85.357C88.024,190.79,87.197,191.616,86.177,191.616z"
						/>
					<rect x="22.875" y="109.045" style="fill:#FFFFFF;" width="58.884" height="75.885"/>
					
						<ellipse transform="matrix(0.2328 -0.9725 0.9725 0.2328 -100.0976 160.2231)" style="fill:#E5E5E5;" cx="51.498" cy="143.551" rx="21.32" ry="21.32"/>
				</g>
				<g>
					<path style="fill:#E5E5E5;" d="M137.564,88.288v51.795c0,0.836-0.678,1.514-1.514,1.514H94.695
						c-0.836,0-1.514-0.678-1.514-1.514V88.288c0-0.836,0.678-1.514,1.514-1.514h41.355
						C136.886,86.773,137.564,87.451,137.564,88.288z"/>
					
						<rect x="92.77" y="97.186" transform="matrix(6.123234e-17 -1 1 6.123234e-17 1.1871 229.5576)" style="fill:#FFFFFF;" width="45.205" height="33.999"/>
					<g>
						<defs>
							
								<rect id="SVGID_1_" x="92.77" y="97.186" transform="matrix(6.123234e-17 -1 1 6.123234e-17 1.1871 229.5576)" width="45.205" height="33.999"/>
						</defs>
						<clipPath id="SVGID_00000103230377087726922750000016197305507914955192_">
							<use xlink:href="#SVGID_1_"  style="overflow:visible;"/>
						</clipPath>
						<g style="clip-path:url(#SVGID_00000103230377087726922750000016197305507914955192_);">
							<path style="fill:#E5E5E5;" d="M136.738,138.619c-1.208-5.748-7.795-26.108-8.889-27.379
								c-3.936,3.842-6.627,6.611-10.372,10.442c-1.999-2.382-9.46-13.61-9.692-13.57c-0.292,0.05-15.148,29.845-15.624,31.256
								L136.738,138.619z"/>
						</g>
					</g>
				</g>
				<g>
					<path style="fill:#E5E5E5;" d="M163.663,191.189H94.524c-0.628,0-1.137-0.509-1.137-1.137v-42.11
						c0-0.628,0.509-1.137,1.137-1.137h69.139c0.628,0,1.137,0.509,1.137,1.137v42.11C164.8,190.68,164.291,191.189,163.663,191.189
						z"/>
					<rect x="99.12" y="151.998" style="fill:#FFFFFF;" width="59.947" height="33.999"/>
					<g>
						<rect x="103.154" y="161.44" style="fill:#E5E5E5;" width="15.073" height="15.073"/>
						<rect x="121.557" y="161.44" style="fill:#E5E5E5;" width="15.073" height="15.073"/>
						<rect x="139.96" y="161.44" style="fill:#E5E5E5;" width="15.073" height="15.073"/>
					</g>
				</g>
			</g>
		</g>
		<g>
			<path style="fill:#2D3962;" d="M230.08,202.583c5.162-8.768,12.691-18.443,22.58-29.026c7.252-7.74,12.578-14.253,15.986-19.544
				c3.404-5.285,5.109-11.284,5.109-17.996c0-9.542-3.244-17.089-9.723-22.64c-6.484-5.545-15.111-8.32-25.877-8.32
				c-10.332,0-19.504,2.515-27.523,7.547c-8.024,5.031-14.782,12.063-20.273,21.092l-39.885-27.478
				c9.23-16.508,21.699-29.28,37.413-38.314c15.709-9.028,34.333-13.545,55.872-13.545c25.27,0,45.541,6.325,60.816,18.964
				c15.272,12.644,22.91,30.186,22.91,52.633c0,10.582-1.484,19.87-4.451,27.865c-2.967,8-6.592,14.773-10.877,20.318
				c-4.285,5.551-9.838,11.937-16.647,19.158c-8.133,8.514-14.066,15.674-17.799,21.479c-3.74,5.805-5.605,12.838-5.605,21.092
				h-49.773C222.334,222.454,224.914,211.358,230.08,202.583z M224.807,313.082c-6.047-6.072-9.065-13.468-9.065-22.185
				c0-8.711,2.967-15.993,8.9-21.841c5.934-5.847,13.514-8.771,22.744-8.771c9.229,0,16.811,2.924,22.744,8.771
				c5.934,5.848,8.9,13.13,8.9,21.841c0,8.717-3.023,16.112-9.066,22.185c-6.045,6.078-13.57,9.115-22.578,9.115
				C238.373,322.198,230.848,319.16,224.807,313.082z"/>
		</g>
		<g>
			<g>
				<g>
					<path style="fill:#E5899D;" d="M124.007,142.393c1-1.699,2.46-3.575,4.376-5.626c1.406-1.5,2.438-2.763,3.098-3.788
						c0.66-1.024,0.99-2.187,0.99-3.488c0-1.85-0.629-3.312-1.884-4.388c-1.257-1.075-2.929-1.613-5.015-1.613
						c-2.003,0-3.78,0.487-5.335,1.463c-1.555,0.975-2.865,2.338-3.929,4.088l-7.73-5.326c1.789-3.2,4.206-5.675,7.251-7.426
						c3.045-1.75,6.654-2.625,10.829-2.625c4.898,0,8.827,1.226,11.787,3.675c2.96,2.451,4.44,5.851,4.44,10.201
						c0,2.051-0.288,3.851-0.863,5.401c-0.575,1.551-1.278,2.863-2.108,3.938c-0.831,1.076-1.907,2.313-3.226,3.713
						c-1.576,1.65-2.726,3.038-3.45,4.163c-0.725,1.125-1.086,2.488-1.086,4.088h-9.647
						C122.505,146.244,123.005,144.093,124.007,142.393z M122.985,163.809c-1.172-1.177-1.757-2.61-1.757-4.3
						c0-1.688,0.575-3.1,1.725-4.233c1.15-1.133,2.619-1.7,4.408-1.7c1.789,0,3.258,0.567,4.408,1.7
						c1.15,1.133,1.725,2.545,1.725,4.233c0,1.689-0.586,3.123-1.757,4.3c-1.172,1.178-2.63,1.767-4.376,1.767
						C125.614,165.576,124.155,164.987,122.985,163.809z"/>
				</g>
			</g>
			<g>
				<g>
					<g>
						<polygon style="fill:#E8B69C;" points="151.071,435.256 151.608,424.013 140.411,423.745 140.198,436.499 						"/>
					</g>
					<g>
						<polygon style="fill:#FFFFFF;" points="151.628,430.324 140.282,430.047 140.155,435.117 151.196,434.743 						"/>
					</g>
					<g>
						<path style="fill:#E5899D;" d="M167.964,442.893c-5.834-1.62-15.222-4.046-15.222-4.046l-0.402-4.452l-12.766-0.154
							c0,0-0.294,10.869-0.336,11.902c-0.042,1.032-0.318,3.553,1.445,3.682c4.492,0.328,29.609,0.918,34.322,0.126
							c1.189-0.2,1.129-2.768-0.95-4.475C172.135,443.897,169.581,443.342,167.964,442.893z"/>
					</g>
					<g>
						<path style="fill:#2D3962;" d="M150.665,444.733c-0.223,0-0.453-0.059-0.687-0.178c-0.307-0.156-0.806-0.558-0.703-1.484
							c0.106-0.952,2.394-4.473,3-5.19c0.103-0.122,0.269-0.175,0.42-0.13c0.154,0.042,0.268,0.171,0.294,0.328
							c0.188,1.162-0.064,4.647-1.179,6.033C151.479,444.523,151.086,444.733,150.665,444.733z M152.224,439.335
							c-0.88,1.307-2.085,3.348-2.138,3.825c-0.056,0.506,0.167,0.619,0.263,0.668c0.236,0.121,0.499,0.177,0.826-0.228
							C151.852,442.759,152.173,440.732,152.224,439.335z"/>
					</g>
					<g>
						<path style="fill:#2D3962;" d="M154.086,444.741c-0.355,0-0.854-0.142-1.23-0.81c-0.47-0.833-0.67-5.028-0.597-5.966
							c0.012-0.159,0.116-0.296,0.265-0.352c0.147-0.055,0.317-0.019,0.43,0.095c0.831,0.834,2.663,3.809,2.567,5.587
							c-0.044,0.809-0.48,1.315-1.229,1.43C154.231,444.734,154.162,444.741,154.086,444.741z M153.066,439.176
							c0.049,1.575,0.263,3.937,0.499,4.355c0.249,0.441,0.496,0.404,0.603,0.388c0.263-0.04,0.51-0.147,0.538-0.667
							C154.764,442.172,153.842,440.339,153.066,439.176z"/>
					</g>
					<g>
						<path style="fill:#2D3962;" d="M175.531,448.779c-0.002,0-0.004,0-0.006,0l-36.09-0.521c-0.225-0.003-0.405-0.188-0.402-0.413
							c0.004-0.225,0.202-0.414,0.413-0.401l36.09,0.521c0.225,0.003,0.405,0.188,0.402,0.413
							C175.935,448.601,175.754,448.779,175.531,448.779z"/>
					</g>
					<g>
						<path style="fill:#2D3962;" d="M160.946,443.607c-0.08,0-0.16-0.023-0.231-0.072c-0.185-0.128-0.232-0.382-0.105-0.567
							c1.23-1.785,2.142-2.226,2.241-2.271c0.204-0.091,0.446,0.001,0.538,0.208c0.091,0.204,0,0.443-0.203,0.536
							c-0.02,0.01-0.815,0.406-1.904,1.989C161.203,443.544,161.076,443.607,160.946,443.607z"/>
					</g>
					<g>
						<path style="fill:#2D3962;" d="M158.461,443.004c-0.08,0-0.16-0.023-0.231-0.072c-0.185-0.128-0.232-0.382-0.104-0.567
							c1.229-1.785,2.142-2.226,2.241-2.271c0.204-0.091,0.446,0.002,0.538,0.208c0.091,0.204,0,0.443-0.203,0.536
							c-0.021,0.01-0.815,0.406-1.904,1.989C158.718,442.942,158.591,443.004,158.461,443.004z"/>
					</g>
					<g>
						<path style="fill:#2D3962;" d="M156.23,442.343c-0.08,0-0.16-0.023-0.231-0.072c-0.185-0.128-0.232-0.382-0.104-0.567
							c1.229-1.785,2.142-2.225,2.241-2.271c0.203-0.09,0.446,0.001,0.538,0.208c0.091,0.204,0,0.443-0.203,0.536
							c-0.021,0.01-0.815,0.406-1.904,1.989C156.487,442.281,156.359,442.343,156.23,442.343z"/>
					</g>
				</g>
				<g>
					<g>
						<polygon style="fill:#E8B69C;" points="108.671,435.256 108.134,424.013 119.331,423.745 119.544,436.499 						"/>
					</g>
					<g>
						<polygon style="fill:#FFFFFF;" points="108.115,430.324 119.461,430.047 119.587,435.117 108.546,434.743 						"/>
					</g>
					<g>
						<path style="fill:#E5899D;" d="M91.778,442.893c5.834-1.62,15.222-4.046,15.222-4.046l0.402-4.452l12.766-0.154
							c0,0,0.294,10.869,0.336,11.902c0.042,1.032,0.318,3.553-1.445,3.682c-4.492,0.328-29.609,0.918-34.322,0.126
							c-1.189-0.2-1.129-2.768,0.95-4.475C87.608,443.897,90.162,443.342,91.778,442.893z"/>
					</g>
					<g>
						<path style="fill:#2D3962;" d="M109.077,444.733c-0.421,0-0.813-0.21-1.145-0.621c-1.116-1.387-1.367-4.871-1.18-6.033
							c0.025-0.157,0.14-0.286,0.293-0.328c0.153-0.046,0.318,0.008,0.42,0.13c0.607,0.718,2.895,4.239,3.001,5.19
							c0.103,0.927-0.396,1.328-0.703,1.484C109.53,444.674,109.3,444.733,109.077,444.733z M107.518,439.334
							c0.05,1.398,0.372,3.425,1.049,4.266c0.326,0.405,0.59,0.35,0.826,0.228c0.095-0.049,0.319-0.163,0.263-0.668
							C109.603,442.683,108.399,440.642,107.518,439.334z"/>
					</g>
					<g>
						<path style="fill:#2D3962;" d="M105.662,444.741c-0.069,0-0.14-0.006-0.212-0.017c-0.748-0.114-1.185-0.622-1.228-1.43
							c-0.096-1.777,1.735-4.753,2.566-5.587c0.112-0.113,0.279-0.149,0.429-0.095c0.15,0.056,0.253,0.192,0.266,0.351
							c0.074,0.938-0.126,5.133-0.597,5.967C106.589,444.459,106.16,444.741,105.662,444.741z M106.676,439.176
							c-0.776,1.163-1.698,2.997-1.64,4.076c0.027,0.519,0.274,0.626,0.536,0.666c0.106,0.018,0.355,0.055,0.604-0.388
							C106.413,443.112,106.627,440.751,106.676,439.176z"/>
					</g>
					<g>
						<path style="fill:#2D3962;" d="M84.212,448.779c-0.223,0-0.404-0.178-0.408-0.401c-0.003-0.226,0.177-0.41,0.402-0.413
							l36.09-0.521c0.239-0.015,0.41,0.176,0.414,0.401c0.003,0.226-0.177,0.41-0.402,0.413l-36.09,0.521
							C84.215,448.779,84.213,448.779,84.212,448.779z"/>
					</g>
					<g>
						<path style="fill:#2D3962;" d="M98.796,443.607c-0.13,0-0.257-0.063-0.336-0.177c-1.099-1.596-1.897-1.986-1.905-1.99
							c-0.202-0.095-0.292-0.336-0.198-0.539c0.093-0.202,0.329-0.293,0.534-0.204c0.1,0.045,1.012,0.485,2.241,2.271
							c0.127,0.186,0.08,0.439-0.105,0.567C98.957,443.583,98.876,443.607,98.796,443.607z"/>
					</g>
					<g>
						<path style="fill:#2D3962;" d="M101.281,443.004c-0.13,0-0.257-0.063-0.336-0.177c-1.099-1.596-1.898-1.986-1.905-1.99
							c-0.202-0.095-0.291-0.336-0.198-0.539c0.092-0.202,0.328-0.293,0.534-0.204c0.1,0.045,1.012,0.485,2.242,2.271
							c0.127,0.186,0.081,0.439-0.104,0.567C101.441,442.981,101.361,443.004,101.281,443.004z"/>
					</g>
					<g>
						<path style="fill:#2D3962;" d="M103.513,442.343c-0.13,0-0.257-0.063-0.336-0.177c-1.099-1.596-1.898-1.986-1.905-1.99
							c-0.202-0.095-0.291-0.336-0.198-0.539c0.092-0.202,0.328-0.295,0.534-0.204c0.1,0.045,1.012,0.485,2.242,2.271
							c0.127,0.186,0.08,0.44-0.104,0.567C103.673,442.32,103.592,442.343,103.513,442.343z"/>
					</g>
				</g>
				<g>
					<path style="fill:#2D3962;" d="M147.272,294.768c2.633,14.959,7.786,49.723,9.114,80.512
						c1.143,26.502-1.538,51.837-1.538,51.837l-16.643-0.77l-4.898-46.308l-6.762-48.791l-3.6,48.466l-0.778,46.718l-17.566,0.984
						c0,0-4.269-37.88-4.666-49.751c-2.378-71.086,4.391-81.383,4.391-81.383L147.272,294.768z"/>
				</g>
				<g>
					<g>
						<g>
							<path style="fill:#E8B69C;" d="M72.109,246.904l1.248,4.056l10.452-4.056c0,0-5.46-13.572-8.892-13.884
								c-3.432-0.312-0.624,4.368-0.624,4.368s-2.241-0.161-6.172-1.038c-1.604-0.358-2.986-1.164-4.024-1.614
								c-1.593-0.689-2.792,0.471-1.939,1.614c0.976,1.308,4.279,2.442,4.279,2.442s-1.534-0.169-3.149-0.434
								c-1.615-0.265-3.311-0.626-3.595,0.141c-0.713,1.926,1.802,2.269,5.563,2.699c0,0-5.167-0.412-5.335,0.599
								c-0.284,1.706,2.434,1.98,5.98,2.409c0,0-4.083-0.215-3.868,1.719s7.445,0.967,7.445,0.967L72.109,246.904z"/>
						</g>
						<g>
							<path style="fill:#2D3962;" d="M68.941,239.496c-0.007,0-0.014,0-0.021,0c-2.559-0.131-4.137-0.778-4.203-0.806
								c-0.208-0.087-0.306-0.325-0.22-0.533c0.086-0.209,0.325-0.307,0.533-0.22c0.015,0.006,1.525,0.621,3.932,0.744
								c0.225,0.012,0.398,0.203,0.386,0.428C69.336,239.327,69.156,239.496,68.941,239.496z"/>
						</g>
						<g>
							<path style="fill:#2D3962;" d="M67.474,241.943c-2.33,0-4.372-0.533-4.467-0.558c-0.217-0.058-0.347-0.281-0.29-0.498
								c0.057-0.218,0.279-0.349,0.498-0.29c0.024,0.006,2.51,0.655,5.022,0.509c0.236-0.008,0.418,0.159,0.431,0.384
								c0.013,0.225-0.159,0.417-0.384,0.431C68.012,241.936,67.741,241.943,67.474,241.943z"/>
						</g>
						<g>
							<path style="fill:#2D3962;" d="M68.261,244.683c-0.97,0-3.57-0.144-3.68-0.15c-0.225-0.013-0.397-0.205-0.385-0.43
								c0.012-0.225,0.214-0.398,0.43-0.385c0.027,0.001,2.687,0.149,3.635,0.149c0.225,0,0.408,0.183,0.408,0.408
								C68.669,244.5,68.486,244.683,68.261,244.683z"/>
						</g>
					</g>
					<g>
						<g>
							<path style="fill:#E8B69C;" d="M181.745,246.904l-1.248,4.056l-10.452-4.056c0,0,5.46-13.572,8.892-13.884
								c3.432-0.312,0.624,4.368,0.624,4.368s2.241-0.161,6.172-1.038c1.604-0.358,2.986-1.164,4.024-1.614
								c1.593-0.689,2.792,0.471,1.939,1.614c-0.976,1.308-4.279,2.442-4.279,2.442s1.534-0.169,3.149-0.434
								c1.615-0.265,3.311-0.626,3.595,0.141c0.713,1.926-1.802,2.269-5.563,2.699c0,0,5.167-0.412,5.335,0.599
								c0.284,1.706-2.434,1.98-5.98,2.409c0,0,4.083-0.215,3.868,1.719s-7.445,0.967-7.445,0.967L181.745,246.904z"/>
						</g>
						<g>
							<path style="fill:#2D3962;" d="M184.913,239.496c-0.215,0-0.395-0.169-0.407-0.387c-0.012-0.225,0.162-0.417,0.386-0.428
								c2.407-0.124,3.917-0.738,3.933-0.744c0.207-0.087,0.446,0.012,0.533,0.22c0.086,0.208-0.012,0.446-0.22,0.533
								c-0.066,0.027-1.645,0.674-4.204,0.806C184.927,239.496,184.921,239.496,184.913,239.496z"/>
						</g>
						<g>
							<path style="fill:#2D3962;" d="M186.38,241.943c-0.268,0-0.538-0.007-0.811-0.023c-0.225-0.013-0.396-0.206-0.384-0.431
								c0.013-0.225,0.189-0.392,0.431-0.384c2.523,0.147,4.998-0.503,5.023-0.509c0.218-0.056,0.441,0.072,0.499,0.29
								c0.058,0.218-0.072,0.441-0.29,0.499C190.753,241.411,188.71,241.943,186.38,241.943z"/>
						</g>
						<g>
							<path style="fill:#2D3962;" d="M185.593,244.683c-0.225,0-0.408-0.183-0.408-0.408c0-0.225,0.183-0.408,0.408-0.408
								c0.948,0,3.608-0.147,3.635-0.149c0.203-0.015,0.417,0.159,0.43,0.385c0.012,0.225-0.16,0.417-0.385,0.43
								C189.163,244.539,186.564,244.683,185.593,244.683z"/>
						</g>
					</g>
					<g>
						<g>
							<path style="fill:#E5899D;" d="M101.916,300.592c0,0-9.331-46.217,7.598-60.804c3.135-2.701,9.013-2.584,13.953-2.99
								c6.544-0.538,16.261-0.178,19.933,3.844c14.067,15.412,5.942,60.383,5.942,60.383L101.916,300.592z"/>
						</g>
						<g style="opacity:0.54;">
							<path style="fill:#C9778C;" d="M151.357,283.368c-0.639,10.039-2.015,17.657-2.015,17.657l-47.426-0.433
								c0,0-0.859-4.256-1.583-10.593c0,0,12.125,2.221,29.753,0.458C147.714,288.694,151.357,283.368,151.357,283.368z"/>
						</g>
						<g>
							<path style="fill:#E5899D;" d="M71.238,250.307l13.426-4.764l4.331,12.777c0,0,13.21-19.707,25.554-20.573
								c12.344-0.866-5.631,30.318-5.631,30.318s-8.879,15.376-21.223,17.324C75.353,287.338,71.238,250.307,71.238,250.307z"/>
						</g>
						<g>
							<path style="fill:#E5899D;" d="M182.114,250.307l-13.427-4.764l-4.331,12.777c0,0-13.21-19.707-25.554-20.573
								c-12.344-0.866,5.63,30.318,5.63,30.318s8.879,15.376,21.223,17.324C177.999,287.338,182.114,250.307,182.114,250.307z"/>
						</g>
						<g>
							<path style="fill:#2D3962;" d="M99.974,286.447c-0.209,0-0.386-0.159-0.406-0.371c-0.499-5.5-1.028-11.833-1.028-11.833
								l0.813-0.068c0,0.001,0.529,6.331,1.028,11.827c0.02,0.225-0.145,0.423-0.369,0.443
								C99.999,286.446,99.986,286.447,99.974,286.447z"/>
						</g>
						<g>
							<path style="fill:#2D3962;" d="M150.435,287.447c-0.014,0-0.028-0.001-0.042-0.003c-0.224-0.022-0.387-0.223-0.364-0.447
								l1.333-12.997c0.023-0.223,0.218-0.396,0.447-0.363c0.224,0.022,0.387,0.223,0.364,0.447l-1.333,12.997
								C150.818,287.289,150.641,287.447,150.435,287.447z"/>
						</g>
					</g>
				</g>
				<g>
					<g>
						<path style="fill:#2D3962;" d="M105.094,205.344c0,0-5.37,22.369,3.299,25.902c3.41,1.389,29.549,5.584,39.728,0
							c6.825-3.744,2.783-22.245,1.582-26.249C148.502,200.993,105.094,205.344,105.094,205.344z"/>
					</g>
					<g>
						<g>
							<path style="fill:#E8B69C;" d="M129.141,234.187c-25.624-0.111-22.306-27.435-21.859-30.471
								c0.029-0.198,0.053-0.397,0.071-0.597l0.033-0.377c0.419-4.85,4.442-8.595,9.31-8.665l21.341-0.305
								c4.942-0.071,9.122,3.662,9.576,8.583C148.713,214.29,147.774,234.268,129.141,234.187z"/>
						</g>
						<g>
							<path style="fill:#2D3962;" d="M134.474,213.732c-0.135,0.965-1.028,1.637-1.993,1.502c-0.965-0.136-1.637-1.028-1.502-1.993
								c0.136-0.965,1.028-1.637,1.993-1.502C133.937,211.874,134.609,212.767,134.474,213.732z"/>
						</g>
						<g>
							<path style="fill:#2D3962;" d="M121.878,213.019c0.247-0.942,1.211-1.506,2.154-1.259c0.943,0.247,1.507,1.211,1.259,2.154
								c-0.247,0.943-1.211,1.506-2.154,1.259C122.195,214.926,121.631,213.962,121.878,213.019z"/>
						</g>
						<g>
							<g>
								<path style="fill:#E8B69C;" d="M108.199,212.095c-2.001-0.448-5.776-1.201-7.26,0.482c-1.259,1.428-0.907,3.681,0.648,4.869
									c2.537,1.939,6.793,2.184,8.07,2.341"/>
							</g>
						</g>
						<g>
							<polygon style="fill:#E8B69C;" points="122.341,231.363 121.597,238.24 134.443,238.487 133.841,231.026 							"/>
						</g>
						<g>
							<path style="fill:#2D3962;" d="M131.343,208.496c0.455-0.452,1.352-0.402,2.011-0.336c0.617,0.062,1.739,0.133,2.212,0.558
								c0.25,0.225,0.32,0.571,0.209,0.845c-0.154,0.381-0.591,0.591-1.033,0.662c-0.39,0.062-0.799,0.032-1.203,0.001
								c-0.544-0.042-1.089-0.084-1.632-0.146c-0.134-0.015-0.272-0.033-0.393-0.093c-0.32-0.159-0.425-0.738-0.397-1.001
								C131.138,208.78,131.218,208.62,131.343,208.496z"/>
						</g>
						<g>
							<path style="fill:#2D3962;" d="M125.012,208.51c-0.423-0.482-1.322-0.493-1.984-0.472c-0.62,0.02-1.744,0.015-2.245,0.406
								c-0.265,0.207-0.358,0.548-0.266,0.829c0.127,0.39,0.549,0.63,0.986,0.73c0.384,0.089,0.795,0.086,1.201,0.082
								c0.546-0.005,1.092-0.01,1.639-0.035c0.135-0.006,0.274-0.014,0.398-0.066c0.33-0.137,0.474-0.707,0.465-0.972
								C125.197,208.807,125.128,208.642,125.012,208.51z"/>
						</g>
						<g>
							<path style="fill:#2D3962;" d="M119.084,202.744c0,0,1.101,3.522,1.627,3.531c1.826,0.029,3.835,0.047,6.045,0.051
								c2.889,0.005,5.513-0.04,7.872-0.118c0.601-0.02,1.461-4.405,1.461-4.405s1.286,4.297,1.762,4.273
								c0.932-0.046,1.813-0.097,2.641-0.15c0.479-0.031,1.192-3.091,1.192-3.091s1.167,2.921,1.621,2.883
								c3.231-0.269,5.363-0.561,6.4-0.721c0.4-0.062,0.669-0.49,0.577-0.924c-2.528-11.893-12.206-18.792-23.745-18.811
								c-11.506-0.019-19.531,7.049-22.13,18.884c-0.119,0.54,0.198,1.08,0.689,1.198c1.233,0.296,2.526,0.493,9.237,0.759
								l2.478,0.073L119.084,202.744z"/>
						</g>
						<g>
							<path style="fill:#2D3962;" d="M137.433,185.799c-0.189,5.547-4.838,9.89-10.385,9.702c-5.547-0.189-9.89-4.838-9.701-10.385
								c0.189-5.547,4.838-9.89,10.385-9.702C133.279,175.603,137.622,180.253,137.433,185.799z"/>
						</g>
						<g>
							<g>
								<path style="fill:#2D3962;" d="M127.955,217.602c-0.006,0-0.013,0-0.02-0.001c-0.225-0.01-0.398-0.201-0.388-0.426
									c0.005-0.117,0.009-0.288,0.014-0.475c0.007-0.343,0.017-0.738,0.038-0.977c0.02-0.225,0.226-0.383,0.441-0.371
									c0.225,0.02,0.391,0.217,0.371,0.441c-0.02,0.226-0.028,0.601-0.035,0.925c-0.004,0.195-0.008,0.373-0.014,0.495
									C128.351,217.432,128.171,217.602,127.955,217.602z"/>
							</g>
							<g>
								<path style="fill:#2D3962;" d="M127.856,219.036c-0.316,0-0.6-0.076-0.837-0.227c-0.475-0.301-0.681-0.908-0.468-1.38
									c0.096-0.211,0.267-0.39,0.496-0.519c0.38-0.214,0.708-0.126,0.998-0.05c0.217,0.058,0.352,0.283,0.294,0.501
									c-0.058,0.217-0.277,0.348-0.493,0.29l-0.011-0.003c-0.258-0.068-0.309-0.072-0.389-0.027
									c-0.073,0.041-0.129,0.094-0.152,0.145c-0.045,0.101,0.033,0.274,0.162,0.355c0.215,0.136,0.517,0.103,0.677,0.07
									c0.218-0.046,0.436,0.1,0.48,0.32c0.044,0.221-0.1,0.436-0.32,0.479C128.141,219.021,127.995,219.036,127.856,219.036z"/>
							</g>
						</g>
						<g>
							<path style="fill:#2D3962;" d="M102.653,215.854c-0.024,0-0.049-0.002-0.074-0.007c-0.222-0.041-0.368-0.253-0.327-0.475
								c0.167-0.905,0.828-1.706,1.685-2.041c0.21-0.082,0.447,0.021,0.528,0.231c0.082,0.21-0.022,0.446-0.231,0.528
								c-0.6,0.234-1.063,0.795-1.18,1.429C103.017,215.717,102.846,215.854,102.653,215.854z"/>
						</g>
						<g>
							<path style="fill:#2D3962;" d="M104.698,216.212c-0.051,0-0.103-0.01-0.153-0.03c-0.808-0.328-1.376-0.908-1.687-1.724
								c-0.08-0.21,0.025-0.446,0.235-0.526c0.211-0.08,0.446,0.025,0.526,0.235c0.23,0.605,0.633,1.017,1.231,1.259
								c0.208,0.085,0.309,0.323,0.225,0.531C105.012,216.117,104.859,216.212,104.698,216.212z"/>
						</g>
						<g>
							<path style="fill:#2D3962;" d="M128.583,223.024c-0.503,0-1.004-0.095-1.471-0.293c-0.207-0.088-0.304-0.327-0.216-0.535
								c0.088-0.207,0.328-0.304,0.535-0.216c1.097,0.465,2.504,0.19,3.347-0.655c0.16-0.159,0.418-0.159,0.577-0.001
								c0.159,0.159,0.16,0.417,0.001,0.577C130.628,222.63,129.604,223.024,128.583,223.024z"/>
						</g>
						<g>
							<path style="fill:#E5899D;" d="M116.275,185.459c0.573-1.514,2.288-1.984,4.123-1.78c1.518,0.169,2.918,1.002,4.444,0.972
								c1.82-0.035,3.44-1.296,5.252-1.109c1.608,0.166,2.93,1.447,4.546,1.447c0.608,0,1.211-0.187,1.814-0.106
								c1.134,0.152,1.897,1.293,1.718,2.295c-0.179,1.001-1.108,1.796-2.174,2.15c-0.619,0.205-1.292,0.285-1.955,0.231
								c-1.269-0.103-2.453-0.682-3.723-0.77c-1.088-0.075-2.154,0.214-3.211,0.437c-3.112,0.656-6.475,0.947-9.633,0.233
								c-1.604-0.365-1.565-2.493-1.319-3.601C116.188,185.717,116.228,185.584,116.275,185.459z"/>
						</g>
						<g>
							<g>
								<path style="fill:#E8B69C;" d="M146.116,212.095c2.001-0.448,5.776-1.201,7.26,0.482c1.259,1.428,0.906,3.681-0.648,4.869
									c-2.537,1.939-6.792,2.184-8.069,2.341"/>
							</g>
						</g>
						<g>
							<path style="fill:#2D3962;" d="M151.662,215.854c-0.193,0-0.364-0.137-0.4-0.333c-0.117-0.634-0.581-1.195-1.181-1.429
								c-0.21-0.082-0.313-0.318-0.231-0.528c0.083-0.21,0.319-0.313,0.528-0.231c0.856,0.335,1.518,1.136,1.686,2.041
								c0.041,0.222-0.105,0.434-0.327,0.475C151.712,215.852,151.687,215.854,151.662,215.854z"/>
						</g>
						<g>
							<path style="fill:#2D3962;" d="M149.617,216.212c-0.161,0-0.313-0.096-0.378-0.254c-0.085-0.208,0.016-0.446,0.225-0.531
								c0.598-0.243,1.001-0.655,1.231-1.259c0.081-0.21,0.315-0.315,0.526-0.235c0.21,0.08,0.316,0.316,0.235,0.526
								c-0.311,0.816-0.878,1.396-1.686,1.724C149.72,216.202,149.668,216.212,149.617,216.212z"/>
						</g>
					</g>
					<g>
						<path style="fill:#2D3962;" d="M129.054,239.398c-0.393,0-0.793-0.014-1.199-0.042c-2.569-0.177-5.491-0.579-7.689-2.211
							c-0.181-0.134-0.218-0.39-0.084-0.57c0.135-0.18,0.39-0.218,0.57-0.084c2.029,1.507,4.808,1.883,7.259,2.052
							c2.779,0.191,5.261-0.307,7.176-1.442c0.193-0.115,0.443-0.051,0.559,0.143c0.115,0.194,0.051,0.444-0.143,0.559
							C133.729,238.854,131.519,239.398,129.054,239.398z"/>
					</g>
				</g>
			</g>
		</g>
		<g>
			<g>
				<g>
					<path style="fill:#738BFF;" d="M364.828,124.909c1-1.699,2.46-3.575,4.376-5.626c1.405-1.5,2.438-2.762,3.098-3.788
						c0.66-1.024,0.99-2.187,0.99-3.488c0-1.849-0.629-3.312-1.884-4.388c-1.257-1.075-2.929-1.613-5.015-1.613
						c-2.003,0-3.78,0.488-5.335,1.463c-1.555,0.975-2.865,2.338-3.929,4.088l-7.73-5.326c1.789-3.2,4.206-5.675,7.251-7.426
						c3.045-1.75,6.654-2.625,10.829-2.625c4.898,0,8.827,1.226,11.787,3.675c2.96,2.451,4.44,5.851,4.44,10.201
						c0,2.051-0.288,3.851-0.863,5.401c-0.575,1.55-1.278,2.863-2.108,3.938c-0.831,1.076-1.907,2.313-3.226,3.713
						c-1.576,1.65-2.726,3.038-3.45,4.163c-0.725,1.125-1.086,2.488-1.086,4.088h-9.647
						C363.326,128.76,363.826,126.61,364.828,124.909z M363.806,146.326c-1.172-1.177-1.757-2.61-1.757-4.3
						c0-1.688,0.575-3.1,1.725-4.233c1.15-1.133,2.619-1.7,4.408-1.7c1.789,0,3.258,0.567,4.408,1.7
						c1.15,1.133,1.725,2.545,1.725,4.233c0,1.689-0.586,3.123-1.757,4.3c-1.172,1.178-2.63,1.767-4.376,1.767
						C366.435,148.092,364.976,147.504,363.806,146.326z"/>
				</g>
			</g>
			<g>
				<g>
					<g>
						<path style="fill:#E8B69C;" d="M292.76,274.543l1.942,7.769c0,0,28.65-4.37,36.662-11.168
							c8.012-6.798,15.782-24.037,15.782-24.037l3.735-36.173c0,0-9.076,1.211-14.175,11.651
							c-5.099,10.44-15.053,35.205-15.053,35.205L292.76,274.543z"/>
					</g>
					<g>
						<g>
							<g>
								<g>
									<g>
										<path style="fill:#E8B69C;" d="M295.765,275.386c-0.587-2.289,1.972-3.685-3.912-2.199
											c-3.096,0.782-6.849,0.414-9.494,0.863c-1.348,0.229-1.873,0.955-2.046,1.372c-0.287,0.696,0.198,1.205,0.198,1.205
											c-1.014,0.477-0.627,1.833-0.53,2.111c0.189,0.539,0.85,0.721,0.85,0.721s-0.762,0.466-0.502,1.722
											c0.157,0.759,0.477,1.125,1.061,1.211c0,0-0.157,1.564,1.144,1.696c0.64,0.065,4.542,0.293,11.249-1.374
											c4.132-1.027,3.228-2.327,2.665-4.525L295.765,275.386z"/>
									</g>
								</g>
								<g>
									<path style="fill:#E8B69C;" d="M285.793,270.877c0.695-1.258,3.182-0.471,5.244,0.375c0.977,0.401,2.333,0.825,2.766,1.38
										c0.637,0.819-3.687,1.632-3.687,1.632S284.397,273.404,285.793,270.877z"/>
								</g>
							</g>
						</g>
						<g>
							<path style="fill:#2D3962;" d="M282.2,282.62c-0.196,0-0.369-0.14-0.405-0.339c-0.04-0.224,0.109-0.438,0.333-0.478
								l6.545-1.173l0.054,0.302l0.205-0.27l-0.205,0.27l0.002,0.014l0.256-0.245c0.135,0.097,0.198,0.264,0.162,0.425
								c-0.036,0.162-0.166,0.286-0.329,0.315l-6.545,1.173C282.248,282.618,282.223,282.62,282.2,282.62z"/>
						</g>
						<g>
							<path style="fill:#2D3962;" d="M280.716,279.828c-0.218,0-0.399-0.17-0.411-0.39c-0.012-0.227,0.163-0.42,0.39-0.433
								c1.78-0.093,5.772-0.487,7.416-0.762c0.211-0.039,0.435,0.112,0.473,0.338c0.038,0.224-0.113,0.436-0.338,0.473
								c-1.666,0.279-5.707,0.679-7.508,0.773C280.731,279.828,280.723,279.828,280.716,279.828z"/>
						</g>
						<g>
							<path style="fill:#2D3962;" d="M280.589,276.904c-0.218,0-0.399-0.171-0.411-0.391c-0.011-0.227,0.164-0.42,0.391-0.432
								c0.631-0.031,1.528-0.053,2.506-0.076c1.807-0.044,3.854-0.094,5.002-0.223c0.221-0.031,0.429,0.137,0.454,0.362
								c0.026,0.226-0.137,0.429-0.362,0.454c-1.183,0.135-3.25,0.185-5.074,0.229c-0.969,0.023-1.859,0.044-2.484,0.076
								C280.603,276.904,280.596,276.904,280.589,276.904z"/>
						</g>
						<g>
							<path style="fill:#2D3962;" d="M289.302,274.04c-0.038,0-0.076-0.005-0.115-0.017c-1.111-0.323-2.221-0.695-3.299-1.108
								c-0.212-0.08-0.318-0.318-0.237-0.53c0.081-0.213,0.32-0.319,0.53-0.237c1.058,0.403,2.145,0.768,3.236,1.086
								c0.218,0.063,0.343,0.291,0.279,0.51C289.645,273.924,289.481,274.04,289.302,274.04z"/>
						</g>
					</g>
				</g>
				<g>
					<g>
						<polygon style="fill:#E8B69C;" points="388.218,437.463 387.677,426.12 398.972,425.85 399.186,438.716 						"/>
					</g>
					<g>
						<polygon style="fill:#FFFFFF;" points="387.657,432.487 399.102,432.208 399.23,437.322 388.092,436.944 						"/>
					</g>
					<g>
						<path style="fill:#738BFF;" d="M371.176,445.166c5.885-1.634,15.355-4.082,15.355-4.082l0.406-4.491l12.878-0.155
							c0,0,0.297,10.965,0.339,12.006c0.042,1.041,0.32,3.585-1.458,3.714c-4.532,0.331-29.869,0.926-34.623,0.127
							c-1.199-0.202-1.139-2.792,0.958-4.515C366.97,446.179,369.546,445.619,371.176,445.166z"/>
					</g>
					<g>
						<path style="fill:#2D3962;" d="M388.627,447.023c-0.424,0-0.819-0.212-1.153-0.627c-1.125-1.398-1.379-4.914-1.19-6.087
							c0.025-0.158,0.142-0.288,0.296-0.331c0.156-0.041,0.319,0.009,0.425,0.131c0.612,0.725,2.92,4.277,3.026,5.237
							c0.104,0.936-0.4,1.339-0.71,1.496C389.085,446.963,388.851,447.023,388.627,447.023z M387.056,441.577
							c0.05,1.41,0.375,3.455,1.058,4.304c0.328,0.408,0.596,0.349,0.832,0.23c0.098-0.05,0.322-0.164,0.266-0.673
							C389.159,444.954,387.944,442.896,387.056,441.577z"/>
					</g>
					<g>
						<path style="fill:#2D3962;" d="M385.177,447.031c-0.077,0-0.148-0.007-0.209-0.017c-0.755-0.116-1.194-0.628-1.238-1.441
							c-0.097-1.793,1.75-4.795,2.589-5.636c0.112-0.114,0.284-0.153,0.433-0.096c0.151,0.056,0.256,0.193,0.269,0.354
							c0.074,0.945-0.127,5.175-0.602,6.019C386.04,446.888,385.536,447.031,385.177,447.031z M386.206,441.416
							c-0.782,1.174-1.713,3.023-1.653,4.111c0.027,0.523,0.276,0.633,0.541,0.674c0.109,0.018,0.359,0.052,0.608-0.392
							C385.94,445.386,386.156,443.005,386.206,441.416z"/>
					</g>
					<g>
						<path style="fill:#2D3962;" d="M363.544,451.104c-0.225,0-0.408-0.18-0.411-0.405c-0.003-0.227,0.178-0.414,0.405-0.417
							l36.407-0.525c0.002,0,0.004,0,0.006,0c0.225,0,0.408,0.18,0.411,0.405c0.003,0.227-0.178,0.414-0.405,0.417l-36.407,0.525
							C363.547,451.104,363.546,451.104,363.544,451.104z"/>
					</g>
					<g>
						<path style="fill:#2D3962;" d="M378.257,445.885c-0.13,0-0.259-0.061-0.339-0.178c-1.109-1.609-1.914-2.003-1.922-2.007
							c-0.203-0.097-0.294-0.34-0.199-0.545c0.094-0.204,0.335-0.294,0.538-0.205c0.101,0.045,1.02,0.49,2.261,2.29
							c0.129,0.187,0.082,0.443-0.105,0.572C378.419,445.862,378.337,445.885,378.257,445.885z"/>
					</g>
					<g>
						<path style="fill:#2D3962;" d="M380.763,445.278c-0.131,0-0.259-0.062-0.339-0.178c-1.108-1.61-1.914-2.003-1.922-2.007
							c-0.204-0.097-0.295-0.34-0.201-0.544c0.094-0.206,0.332-0.294,0.539-0.206c0.101,0.045,1.021,0.488,2.262,2.29
							c0.129,0.188,0.081,0.443-0.105,0.572C380.925,445.254,380.844,445.278,380.763,445.278z"/>
					</g>
					<g>
						<path style="fill:#2D3962;" d="M383.014,444.611c-0.13,0-0.259-0.062-0.339-0.178c-1.109-1.609-1.914-2.003-1.923-2.007
							c-0.203-0.097-0.294-0.34-0.199-0.545c0.093-0.204,0.335-0.294,0.538-0.205c0.101,0.045,1.021,0.49,2.262,2.29
							c0.129,0.187,0.082,0.443-0.105,0.572C383.176,444.587,383.095,444.611,383.014,444.611z"/>
					</g>
				</g>
				<g>
					<g>
						<polygon style="fill:#E8B69C;" points="355.383,437.463 354.841,426.12 366.137,425.85 366.351,438.716 						"/>
					</g>
					<g>
						<polygon style="fill:#FFFFFF;" points="354.821,432.487 366.267,432.208 366.394,437.322 355.257,436.944 						"/>
					</g>
					<g>
						<path style="fill:#738BFF;" d="M338.341,445.166c5.885-1.634,15.355-4.082,15.355-4.082l0.406-4.491l12.878-0.155
							c0,0,0.296,10.965,0.339,12.006c0.042,1.041,0.321,3.585-1.458,3.714c-4.532,0.331-29.869,0.926-34.623,0.127
							c-1.199-0.202-1.139-2.792,0.958-4.515C334.134,446.179,336.711,445.619,338.341,445.166z"/>
					</g>
					<g>
						<path style="fill:#2D3962;" d="M355.791,447.023c-0.424,0-0.819-0.212-1.153-0.627c-1.125-1.398-1.379-4.914-1.19-6.087
							c0.025-0.158,0.142-0.288,0.296-0.331c0.157-0.041,0.32,0.009,0.425,0.131c0.611,0.725,2.919,4.275,3.027,5.236
							c0.103,0.937-0.4,1.34-0.71,1.497C356.249,446.963,356.016,447.023,355.791,447.023z M354.22,441.577
							c0.05,1.41,0.375,3.455,1.058,4.304c0.328,0.408,0.596,0.352,0.834,0.23c0.097-0.05,0.321-0.164,0.265-0.673
							C356.323,444.954,355.108,442.895,354.22,441.577z"/>
					</g>
					<g>
						<path style="fill:#2D3962;" d="M352.341,447.031c-0.077,0-0.147-0.007-0.208-0.017c-0.755-0.116-1.195-0.628-1.239-1.441
							c-0.096-1.796,1.752-4.796,2.59-5.636c0.113-0.114,0.282-0.153,0.434-0.096c0.15,0.056,0.255,0.193,0.268,0.354
							c0.074,0.945-0.127,5.175-0.602,6.019C353.203,446.888,352.699,447.031,352.341,447.031z M353.371,441.415
							c-0.782,1.174-1.713,3.023-1.654,4.112c0.027,0.523,0.276,0.633,0.542,0.674c0.107,0.016,0.357,0.053,0.608-0.393
							C353.105,445.386,353.322,443.004,353.371,441.415z"/>
					</g>
					<g>
						<path style="fill:#2D3962;" d="M330.709,451.104c-0.225,0-0.408-0.18-0.411-0.405c-0.003-0.227,0.178-0.414,0.405-0.417
							l36.407-0.525c0.002,0,0.004,0,0.006,0c0.225,0,0.408,0.18,0.411,0.405c0.003,0.227-0.178,0.414-0.405,0.417l-36.407,0.525
							C330.712,451.104,330.711,451.104,330.709,451.104z"/>
					</g>
					<g>
						<path style="fill:#2D3962;" d="M345.421,445.885c-0.131,0-0.259-0.063-0.339-0.178c-1.108-1.609-1.913-2.003-1.922-2.007
							c-0.203-0.097-0.294-0.34-0.199-0.545c0.093-0.204,0.335-0.294,0.538-0.205c0.101,0.045,1.021,0.49,2.261,2.29
							c0.129,0.188,0.081,0.443-0.105,0.572C345.583,445.862,345.502,445.885,345.421,445.885z"/>
					</g>
					<g>
						<path style="fill:#2D3962;" d="M347.927,445.278c-0.131,0-0.259-0.063-0.339-0.178c-1.108-1.61-1.913-2.003-1.921-2.007
							c-0.204-0.097-0.295-0.34-0.201-0.544c0.095-0.206,0.332-0.294,0.539-0.206c0.101,0.045,1.021,0.488,2.261,2.29
							c0.129,0.188,0.081,0.443-0.105,0.572C348.089,445.254,348.008,445.278,347.927,445.278z"/>
					</g>
					<g>
						<path style="fill:#2D3962;" d="M350.178,444.611c-0.131,0-0.259-0.063-0.339-0.178c-1.108-1.609-1.913-2.003-1.922-2.007
							c-0.203-0.097-0.294-0.34-0.199-0.545c0.093-0.204,0.334-0.294,0.538-0.205c0.101,0.045,1.021,0.49,2.261,2.29
							c0.129,0.188,0.081,0.443-0.105,0.572C350.34,444.587,350.259,444.611,350.178,444.611z"/>
					</g>
				</g>
				<g>
					<path style="fill:#2D3962;" d="M395.321,277.748c2.793,17.05,4.847,59.91,6.256,95.002c1.213,30.206,1.78,54.513,1.78,54.513
						l-17.654,0.455l-7.518-52.192l-4.85-49.475l-3.819,48.516l-0.825,53.248l-18.632,0.322c0,0-4.529-42.375-4.95-55.905
						c-2.522-81.022,4.658-92.757,4.658-92.757L395.321,277.748z"/>
				</g>
				<g>
					<path style="fill:#E8B69C;" d="M388.465,211.251l28.54-13.275l-23-13.753l-3.642,2.671c0,0-2.338,2.917-5.009,3.403
						l1.756-16.613c0,0,46.648,10.453,51.018,22.835c4.37,12.382-40.724,34.806-40.724,34.806L388.465,211.251z"/>
				</g>
				<g>
					<g>
						<path style="fill:#738BFF;" d="M341.811,303.275c0,0,1.487-15.419,1.411-33.3c-0.111-25.944-0.883-57.576,7.658-59.04
							c14.428-2.473,35.485-6.416,41.223,1.649c7.62,10.709,6.353,33.344,7.121,53.35c0.77,20.039,1.398,37.243,1.398,37.243
							L341.811,303.275z"/>
					</g>
					<g style="opacity:0.58;">
						<path style="fill:#5B77DD;" d="M399.829,281.835c0.469,12.447,0.794,21.341,0.794,21.341l-58.812,0.098
							c0,0,0.262-0.514,0.652-7.61c0,0,24.907-1.3,38.367-3.621C394.289,289.724,399.829,281.835,399.829,281.835z"/>
					</g>
					<g>
						<path style="fill:#738BFF;" d="M353.63,210.678c0,0-7.047-1.174-14.265,5.667c-4.372,4.143-8.183,13.314-12.311,21.496
							l23.059,13.288L353.63,210.678z"/>
					</g>
					<g>
						<polygon style="fill:#738BFF;" points="384.684,208.652 408.548,200.146 415.872,225.664 397.207,235.824 						"/>
					</g>
					<g>
						<path style="fill:#2D3962;" d="M382.43,244.807c-0.083,0-0.165-0.024-0.237-0.072l-7.26-4.84
							c-0.124-0.083-0.195-0.224-0.189-0.373l0.186-4.468c0.01-0.229,0.197-0.41,0.427-0.41h14.148c0.236,0,0.427,0.191,0.427,0.427
							v5.213c0,0.152-0.081,0.294-0.213,0.37l-7.074,4.095C382.578,244.787,382.504,244.807,382.43,244.807z M375.607,239.317
							l6.839,4.56l6.632-3.838v-4.54h-13.311L375.607,239.317z"/>
					</g>
					<g>
						<path style="fill:#2D3962;" d="M343.503,256.612c-0.229,0-0.42-0.182-0.427-0.413l-0.444-13.567
							c-0.008-0.236,0.177-0.434,0.413-0.441c0.229-0.002,0.434,0.177,0.44,0.413l0.444,13.568c0.008,0.235-0.177,0.433-0.413,0.44
							C343.511,256.612,343.507,256.612,343.503,256.612z"/>
					</g>
				</g>
				<g>
					<g>
						<g>
							<g>
								<g>
									<g>
										<path style="fill:#E8B69C;" d="M351.593,171.543c0,0-3.313,13.092-2.475,21.084c0.79,7.549,5.584,12.415,12.335,12.421
											l0.629,5.195c0,0,8.992,2.4,17.725-0.168l0.135-11.959l-0.081-25.312l-3.234-5.002l-22.519-3.322L351.593,171.543z"/>
									</g>
									<g>
										<path style="fill:#2D3962;" d="M364.634,182.373c-0.099,0.718-0.762,1.221-1.48,1.122
											c-0.718-0.099-1.221-0.762-1.122-1.48c0.099-0.718,0.762-1.221,1.48-1.122
											C364.231,180.992,364.733,181.655,364.634,182.373z"/>
									</g>
									<g>
										<path style="fill:#2D3962;" d="M357.228,181.467c-0.099,0.719-0.762,1.221-1.48,1.122
											c-0.719-0.099-1.221-0.762-1.122-1.48c0.099-0.718,0.762-1.221,1.48-1.122S357.327,180.749,357.228,181.467z"/>
									</g>
									<g>
										<path style="fill:#2D3962;" d="M371.267,202.716c-0.898,0.929-9.059,5.629-9.393,5.77c0,0-0.494-4.179-0.454-3.654
											c0.016,0.216,1.782,0.323,3.986-0.316c1.974-0.573,4.029-1.502,5.289-2.116L371.267,202.716z"/>
									</g>
									<g>
										<path style="fill:#2D3962;" d="M361.685,205.704c-2.585,0-4.993-0.737-7.209-2.21c-0.196-0.131-0.25-0.396-0.119-0.593
											c0.131-0.197,0.398-0.249,0.592-0.119c4.427,2.945,9.716,2.732,15.721-0.637c0.205-0.115,0.465-0.043,0.582,0.164
											c0.115,0.206,0.042,0.466-0.164,0.582C367.744,204.766,364.602,205.704,361.685,205.704z"/>
									</g>
									<g>
										<path style="fill:#2D3962;" d="M362.119,177.249c0.901-0.689,3.233,0.042,3.884,0.408c0,0,0.443,0.694-0.14,1.31
											c-0.679,0.718-2.853,0.087-3.667-0.034c-0.066-0.01-0.135-0.021-0.189-0.06c-0.065-0.049-0.096-0.13-0.121-0.208
											c-0.095-0.293-0.165-0.607-0.094-0.907C361.845,177.537,361.96,177.371,362.119,177.249z"/>
									</g>
									<g>
										<path style="fill:#2D3962;" d="M354.086,176.404c0.887-0.707,3.233-0.024,3.891,0.329c0,0,0.456,0.685-0.114,1.312
											c-0.665,0.731-2.851,0.144-3.667,0.041c-0.066-0.008-0.135-0.018-0.19-0.057c-0.066-0.047-0.098-0.128-0.125-0.205
											c-0.101-0.291-0.177-0.604-0.112-0.905C353.818,176.698,353.929,176.529,354.086,176.404z"/>
									</g>
									<g>
										<g>
											<path style="fill:#E8B69C;" d="M377.659,185.443c2.23-0.837,6.452-2.309,8.429-0.61c1.677,1.441,1.633,4.09,0.036,5.705
												c-2.608,2.638-7.464,3.602-8.908,3.987"/>
										</g>
										<g>
											<path style="fill:#2D3962;" d="M384.556,187.721c-0.059,0-0.118-0.012-0.175-0.037c-1.531-0.686-2.64-0.211-2.686-0.191
												c-0.212,0.093-0.467-0.001-0.564-0.215c-0.096-0.214-0.003-0.465,0.211-0.563c0.061-0.027,1.483-0.662,3.389,0.189
												c0.215,0.096,0.312,0.349,0.215,0.564C384.876,187.626,384.719,187.721,384.556,187.721z"/>
										</g>
										<g>
											<path style="fill:#2D3962;" d="M382.324,189.787c-0.09,0-0.181-0.029-0.258-0.087c-0.188-0.142-0.225-0.41-0.082-0.598
												c0.004-0.006,0.49-0.655,1.023-1.921c0.091-0.217,0.341-0.318,0.56-0.227c0.218,0.091,0.319,0.342,0.228,0.559
												c-0.58,1.377-1.108,2.078-1.131,2.107C382.58,189.729,382.453,189.787,382.324,189.787z"/>
										</g>
									</g>
									<g>
										<path style="fill:#2D3962;" d="M365.144,158.88c1.694,0.033,12.084,0.474,16.144,1.76
											c2.164,0.685,4.305,1.763,5.649,3.592c0.999,1.359,1.483,3.033,1.727,4.702c0.647,4.417-1.646,16.589-1.646,16.589
											s-1.656-1.313-4.571-1.175c-0.775,0.037-2.253,0.342-2.921,0.505c-0.306,0.075-0.373,6.264-0.654,6.254l-3.706-0.432
											c-0.268-0.01,0.209-16.23,0.053-16.438c-0.706-0.94-3.554-3.55-8.036-3.058c-5.49,0.603-12.226,2.704-16.756-0.169
											c-2.89-1.833-4.284-5.906-3.257-9.589c0.075-0.271,1.91-4.692,7.401-4.555C357.116,156.928,361.2,158.804,365.144,158.88z
											"/>
									</g>
									<g>
										<g>
											<path style="fill:#2D3962;" d="M359.008,185.765c-0.007,0-0.014,0-0.021,0c-0.235-0.011-0.418-0.212-0.406-0.447
												c0.006-0.127,0.01-0.312,0.015-0.515c0.008-0.355,0.018-0.76,0.039-1.006c0.021-0.234,0.209-0.413,0.463-0.389
												c0.235,0.02,0.409,0.228,0.389,0.463c-0.021,0.232-0.028,0.616-0.036,0.952c-0.005,0.211-0.01,0.405-0.016,0.537
												C359.424,185.587,359.235,185.765,359.008,185.765z"/>
										</g>
										<g>
											<path style="fill:#2D3962;" d="M358.904,187.268c-0.281,0-0.593-0.058-0.876-0.238c-0.497-0.316-0.713-0.951-0.49-1.445
												c0.102-0.223,0.281-0.411,0.521-0.545c0.4-0.226,0.745-0.133,1.048-0.051c0.229,0.061,0.368,0.296,0.307,0.524
												c-0.06,0.227-0.29,0.364-0.518,0.303l-0.009-0.002c-0.271-0.073-0.325-0.077-0.409-0.03
												c-0.077,0.043-0.136,0.099-0.16,0.152c-0.047,0.104,0.035,0.286,0.17,0.372c0.224,0.142,0.54,0.107,0.709,0.074
												c0.233-0.051,0.456,0.105,0.503,0.335c0.046,0.231-0.103,0.456-0.335,0.502
												C359.228,187.247,359.071,187.268,358.904,187.268z"/>
										</g>
									</g>
									<g>
										<path style="fill:#2D3962;" d="M359.668,191.447c-0.526,0-1.053-0.1-1.542-0.307c-0.217-0.092-0.318-0.343-0.227-0.56
											c0.092-0.218,0.344-0.318,0.561-0.227c1.146,0.487,2.625,0.199,3.507-0.686c0.168-0.167,0.437-0.167,0.604-0.001
											c0.167,0.166,0.167,0.437,0.001,0.604C361.81,191.035,360.738,191.447,359.668,191.447z"/>
									</g>
								</g>
								<g>
									<path style="fill:#2D3962;" d="M371.767,211.802c-5.021,0-9.506-1.04-9.793-1.107c-0.25-0.059-0.404-0.309-0.345-0.559
										c0.058-0.249,0.313-0.404,0.558-0.345c0.105,0.025,10.741,2.486,17.449-0.148c0.238-0.094,0.509,0.023,0.602,0.262
										c0.094,0.238-0.023,0.508-0.262,0.601C377.489,211.484,374.546,211.802,371.767,211.802z"/>
								</g>
							</g>
						</g>
					</g>
				</g>
			</g>
		</g>
		<g>
			<g>
				<g>
					<g>
						<g>
							<path style="fill:#76ADA0;" d="M37.508,368.87c0.061-0.525,0.094-1.056,0.094-1.595c-0.005-4.023-1.57-7.799-3.04-11.67
								c-3.12-8.221-3.271-17.286,1.728-24.974c2.005-3.083,3.422-6.011,4.326-9.37c1.674-6.222-4.661-27.255,9.744-27.431
								c17.404-0.212,8.112,22.319,10.867,28.842c1.605,3.801,2.886,7.217,4.902,10.907c3.5,6.408,2.986,13.646,0.767,20.364
								c-1.686,5.104-4.218,10.107-3.459,15.334c1.118,7.703,5.948,12.57,3.848,20.73c-1.853,7.198-7.504,13.625-17.67,13.625
								c-10.233,0.001-16.019-5.603-17.213-12.648C30.58,380.23,36.605,376.575,37.508,368.87z"/>
						</g>
					</g>
				</g>
				<g>
					<path style="fill:#212C49;" d="M47.955,412.961c-0.005,0-0.009,0-0.014,0c-0.25-0.008-0.446-0.216-0.438-0.466l2.892-96.145
						c0.007-0.25,0.219-0.433,0.466-0.439c0.25,0.008,0.446,0.216,0.438,0.466l-2.892,96.146
						C48.4,412.768,48.198,412.961,47.955,412.961z"/>
				</g>
				<g>
					<g>
						<g style="opacity:0.1;">
							<path style="fill:#212C49;" d="M63.437,369.277c1.118,7.703,5.948,12.57,3.848,20.73c-1.853,7.198-7.504,13.625-17.67,13.625
								c-10.233,0.001-16.019-5.603-17.213-12.648c0,0,14.76-2.792,20.834-7.231"/>
						</g>
					</g>
				</g>
				<g>
					<g>
						<g>
							<path style="fill:#3B7A69;" d="M55.694,372.815c0.185-0.465,0.344-0.942,0.471-1.432c0.953-3.657,0.326-7.381-0.186-11.174
								c-1.086-8.054,0.927-16.321,7.637-22.374c2.691-2.427,4.772-4.823,6.455-7.708c3.116-5.342,1.946-25.641,16.045-23.11
								c17.034,3.058,2.598,21.799,3.732,28.242c0.661,3.754,1.097,7.098,2.184,10.828c1.888,6.478-0.338,12.959-4.104,18.651
								c-2.861,4.324-6.524,8.398-7.029,13.289c-0.744,7.209,2.809,12.536-1.185,19.559c-3.523,6.196-10.569,10.981-20.489,9.082
								c-9.986-1.911-14.297-8.085-13.783-14.711C46.227,381.845,52.978,379.649,55.694,372.815z"/>
						</g>
					</g>
				</g>
				<g style="opacity:0.1;">
					<path style="fill:#212C49;" d="M80.899,378.029c-0.744,7.209,2.809,12.536-1.185,19.559
						c-3.523,6.196-10.569,10.981-20.489,9.082c-9.986-1.911-14.297-8.085-13.783-14.711c0,0,12.233,1.14,19.242-1.897
						C71.695,387.024,80.899,378.029,80.899,378.029z"/>
				</g>
				<g>
					<path style="fill:#212C49;" d="M57.111,413.684c-0.042,0-0.084-0.006-0.127-0.018c-0.24-0.069-0.377-0.321-0.307-0.561
						l23.855-81.446c0.07-0.239,0.322-0.378,0.561-0.307c0.24,0.069,0.377,0.321,0.307,0.561l-23.856,81.446
						C57.488,413.556,57.307,413.684,57.111,413.684z"/>
				</g>
				<g>
					<g>
						<g>
							<path style="fill:#EDB15B;" d="M76.775,414.967l-5.16,31.903c-0.321,1.987-2.037,3.447-4.049,3.447H39.51
								c-2.012,0-3.727-1.459-4.049-3.445l-5.159-31.796c-0.404-2.49,1.514-4.752,4.037-4.759l38.375-0.106
								C75.246,410.203,77.179,412.468,76.775,414.967z"/>
						</g>
					</g>
				</g>
				<g style="opacity:0.4;">
					<path style="fill:#D19A52;" d="M74.21,430.827l-2.595,16.042c-0.321,1.987-2.037,3.447-4.049,3.447H39.51
						c-2.012,0-3.727-1.459-4.049-3.445c0,0,17.306-2.445,23.092-5.245S74.21,430.827,74.21,430.827z"/>
				</g>
				<g>
					<path style="fill:#212C49;" d="M76.134,417.616H30.807c-0.25,0-0.452-0.202-0.452-0.452s0.202-0.452,0.452-0.452h45.327
						c0.25,0,0.452,0.202,0.452,0.452S76.383,417.616,76.134,417.616z"/>
				</g>
				<g>
					<path style="fill:#212C49;" d="M35.462,446.776c-0.248,0-0.45-0.2-0.452-0.448c-0.002-0.25,0.199-0.454,0.449-0.456
						l36.154-0.274c0.001,0,0.002,0,0.003,0c0.248,0,0.45,0.2,0.452,0.448c0.002,0.25-0.199,0.454-0.449,0.456l-36.154,0.274
						C35.464,446.776,35.463,446.776,35.462,446.776z"/>
				</g>
			</g>
			<g>
				<g>
					<path style="fill:#429383;" d="M417.856,327.353c-2.856-9.982-2.918-20.522-4.461-30.79
						c-2.521-16.778-5.676-32.42-2.884-49.155c1.157-6.934,4.989-14.513,11.904-15.777c4.376-0.8,8.817,1.228,12.335,3.951
						c10.159,7.865,11.231,19.87,14.394,32.323c2.289,9.012,4.198,18.15,4.963,27.417c1.068,12.939,5.338,49.468-10.225,52.105
						C425.566,350.532,420.712,337.335,417.856,327.353z"/>
				</g>
				<g style="opacity:0.33;">
					<g>
						<path style="fill:#367569;" d="M454.107,295.322c1.068,12.939,5.338,49.468-10.225,52.105
							c-18.316,3.104-23.17-10.092-26.026-20.075c0,0,14.191-4.482,19.341-10.276C442.348,311.282,454.107,295.322,454.107,295.322z
							"/>
					</g>
				</g>
				<g>
					<path style="fill:#1B253A;" d="M442.767,411.964c-0.211,0-0.384-0.169-0.387-0.381
						c-1.039-70.709-13.471-147.806-13.596-148.576c-0.034-0.211,0.108-0.41,0.319-0.444c0.219-0.037,0.409,0.109,0.444,0.319
						c0.126,0.771,12.566,77.925,13.605,148.689c0.003,0.214-0.167,0.39-0.381,0.393
						C442.771,411.964,442.769,411.964,442.767,411.964z"/>
				</g>
				<g>
					<path style="fill:#56B2A1;" d="M468.684,330.044c0.865-13.298,2.3-25.749-0.99-38.663c-1.363-5.35-4.864-11.029-10.36-11.562
						c-3.478-0.337-6.819,1.543-9.393,3.907c-7.432,6.827-7.478,16.294-9.13,26.249c-1.196,7.205-2.086,14.483-2.073,21.787
						c0.019,10.197-1.494,35.455,13.382,37.987C469.701,373.082,468.155,338.182,468.684,330.044z"/>
				</g>
				<g style="opacity:0.16;">
					<g>
						<path style="fill:#367569;" d="M468.961,326.008c-0.094,1.337-0.188,2.682-0.276,4.036
							c-0.529,8.138,1.016,43.038-18.564,39.705c-8.595-1.463-11.719-10.511-12.828-19.859c0,0,10.724,0.555,17.388-4.493
							C461.345,340.349,468.961,326.008,468.961,326.008z"/>
					</g>
				</g>
				<g>
					<path style="fill:#1B253A;" d="M448.455,412.028c-0.007,0-0.015,0-0.022,0c-0.213-0.013-0.376-0.195-0.364-0.409
						c0.042-0.721,4.215-72.506,8.334-109.169c0.024-0.213,0.216-0.353,0.428-0.342c0.213,0.024,0.365,0.216,0.342,0.428
						c-4.117,36.643-8.289,108.407-8.33,109.128C448.829,411.87,448.659,412.028,448.455,412.028z"/>
				</g>
				<g>
					<g>
						<g>
							<path style="fill:#EDB15B;" d="M464.565,414.967l-5.16,31.903c-0.321,1.987-2.037,3.447-4.049,3.447H427.3
								c-2.012,0-3.727-1.459-4.049-3.445l-5.159-31.796c-0.404-2.49,1.514-4.752,4.037-4.759l38.375-0.106
								C463.036,410.203,464.969,412.468,464.565,414.967z"/>
						</g>
					</g>
				</g>
				<g style="opacity:0.4;">
					<path style="fill:#D19A52;" d="M462,430.827l-2.594,16.042c-0.321,1.987-2.037,3.447-4.049,3.447H427.3
						c-2.012,0-3.727-1.459-4.049-3.445c0,0,17.306-2.445,23.092-5.245C452.13,438.827,462,430.827,462,430.827z"/>
				</g>
				<g>
					<path style="fill:#212C49;" d="M463.924,417.616h-45.327c-0.25,0-0.452-0.202-0.452-0.452s0.202-0.452,0.452-0.452h45.327
						c0.25,0,0.452,0.202,0.452,0.452S464.174,417.616,463.924,417.616z"/>
				</g>
				<g>
					<path style="fill:#212C49;" d="M423.252,446.776c-0.248,0-0.45-0.2-0.452-0.448c-0.002-0.25,0.199-0.454,0.448-0.456
						l36.154-0.274c0.002,0,0.003,0,0.004,0c0.248,0,0.45,0.2,0.452,0.448c0.002,0.25-0.199,0.454-0.448,0.456l-36.154,0.274
						C423.254,446.776,423.253,446.776,423.252,446.776z"/>
				</g>
			</g>
		</g>
	</g>
</g>
</svg>
