<?xml version="1.0" encoding="utf-8"?>
<!-- Generator: Adobe Illustrator 27.5.0, SVG Export Plug-In . SVG Version: 6.00 Build 0)  -->
<svg version="1.1" xmlns="http://www.w3.org/2000/svg" xmlns:xlink="http://www.w3.org/1999/xlink" x="0px" y="0px"
	 viewBox="0 0 3710 3710" style="enable-background:new 0 0 3710 3710;" xml:space="preserve">
<g id="Background">
	<g>
		<g>
			<rect style="fill:#FFFFFF;" width="3710" height="3710"/>
		</g>
	</g>
</g>
<g id="Illustration">
	<g>
		<linearGradient id="SVGID_1_" gradientUnits="userSpaceOnUse" x1="3631.1421" y1="3518.6006" x2="1490.6952" y2="1598.4919">
			<stop  offset="0" style="stop-color:#DAE3FE"/>
			<stop  offset="1" style="stop-color:#E9EFFD"/>
		</linearGradient>
		<path style="fill:url(#SVGID_1_);" d="M2917.865,2853.98c-72.045,74.261-136.508,117.915-185.863,150.87
			c-481.352,321.403-1031.591,228.767-1201.711,197.104c-274.468-51.084-506.157-87.122-705.219-266.967
			c-452.329-408.661-430.329-1261.16-84.694-1789.245c40.982-62.616,386.093-574.178,937.523-646.261
			c13.487-1.763,23.55-2.767,32.364-3.7c85.305-9.032,613.922-56.7,1044.957,304.421c61.701,51.693,160.995,144.933,253.072,287.14
			C3344.973,1607.313,3346.039,2412.635,2917.865,2853.98z"/>
		<g>
			
				<linearGradient id="SVGID_00000067948509955256664080000015039391102401441946_" gradientUnits="userSpaceOnUse" x1="3205.3052" y1="876.2355" x2="245.4625" y2="5396.4214">
				<stop  offset="0" style="stop-color:#FF928E"/>
				<stop  offset="1" style="stop-color:#FE7062"/>
			</linearGradient>
			<path style="fill:url(#SVGID_00000067948509955256664080000015039391102401441946_);" d="M2866.485,3223.47H1687.769V1363.893
				c0-26.874,21.785-48.659,48.659-48.659h1099.086c26.874,0,48.659,21.785,48.659,48.659v1841.888
				C2884.174,3215.55,2876.254,3223.47,2866.485,3223.47z"/>
			<g>
				<g>
					<path style="fill:#BDD0FB;" d="M608.572,816.192c4.47-14.93,26.033-13.942,29.051,1.349
						c29.181,147.825,117.841,533.051,284.128,746.869c270.754,348.145,426.41,891.091,215.061,1149.3
						C1136.812,2713.71,121.491,2442.97,608.572,816.192z"/>
					<path style="opacity:0.43;fill:#FFFFFF;" d="M620.852,1024.808c-0.006,4.756,0.367,8.681,0.583,12.92l0.908,12.482
						l2.091,24.918c1.508,16.597,3.269,33.165,5.031,49.734c3.644,33.122,7.699,66.196,12.057,99.234
						c8.839,66.058,19.466,131.867,31.08,197.504c11.523,65.658,24.882,130.994,39.62,196.02
						c14.794,65.009,30.514,129.836,48.358,194.11c35.431,128.594,77.888,255.383,129.134,378.663
						c26.267,61.357,54.15,122.06,85.496,181.016c31.758,58.709,66.029,116.097,104.33,170.729c0.833,1.188,2.471,1.476,3.659,0.642
						c1.158-0.812,1.461-2.39,0.703-3.57l-0.02-0.03c-36.02-55.874-68.972-113.582-99.023-172.784
						c-30.22-59.126-56.974-119.956-82.106-181.389c-25.105-61.467-47.729-123.933-68.929-186.866
						c-21.179-62.957-39.743-126.759-57.942-190.647c-35.863-127.968-64.877-257.801-90.301-388.3
						c-12.574-65.285-23.833-130.83-33.926-196.56c-5.099-32.857-9.897-65.764-14.285-98.726l-6.194-49.486l-2.843-24.764
						l-1.283-12.384c-0.355-4.063-0.804-8.425-0.968-11.993l-0.027-0.589c-0.066-1.437-1.284-2.549-2.72-2.483
						C621.944,1022.274,620.857,1023.428,620.852,1024.808z"/>
				</g>
				<g>
					<path style="fill:#91B3FA;" d="M1135.619,527.208c8.172-12.472,27.677-5.683,26.274,9.162
						c-13.567,143.524-37.352,520.982,56.811,762.427c153.32,393.128,147.948,933.501-116.31,1112.636
						C1102.395,2411.433,245.152,1886.169,1135.619,527.208z"/>
					<path style="opacity:0.43;fill:#FFFFFF;" d="M1089.927,721.853c-1.307,4.369-2.035,8.066-2.995,12.013l-2.575,11.695
						l-4.887,23.421c-3.15,15.632-6.057,31.306-8.964,46.98c-5.701,31.368-11.012,62.805-16.034,94.29
						c-9.926,62.99-18.14,126.24-25.404,189.601c-7.355,63.356-12.931,126.918-17.157,190.572
						c-4.171,63.654-7.442,127.394-8.615,191.207c-2.592,127.597,1.767,255.457,15.139,382.496
						c7.359,63.434,16.38,126.712,29.052,189.33c13.123,62.503,28.908,124.48,49.151,185.024c0.449,1.341,1.899,2.064,3.239,1.616
						c1.307-0.437,2.028-1.826,1.648-3.137l-0.01-0.034c-17.767-61.071-32.23-122.98-43.623-185.469
						c-11.573-62.465-19.504-125.545-25.782-188.736c-6.246-63.214-9.952-126.668-12.222-190.161
						c-2.246-63.51-1.856-127.082-1.122-190.632c2.013-127.132,10.83-254.106,23.095-380.716
						c6.269-63.298,13.82-126.479,22.483-189.509c4.281-31.523,8.851-63.009,13.812-94.435l7.809-47.072l4.142-23.486l2.198-11.707
						c0.782-3.821,1.559-7.948,2.378-11.254l0.139-0.559c0.337-1.36-0.492-2.736-1.853-3.073
						C1091.649,719.791,1090.314,720.567,1089.927,721.853z"/>
				</g>
			</g>
			
				<linearGradient id="SVGID_00000166653327995952886850000002888471840192273025_" gradientUnits="userSpaceOnUse" x1="2308.6772" y1="1538.5457" x2="116.9522" y2="4885.6846">
				<stop  offset="0" style="stop-color:#E1473D"/>
				<stop  offset="1" style="stop-color:#E9605A"/>
			</linearGradient>
			<path style="fill:url(#SVGID_00000166653327995952886850000002888471840192273025_);" d="M2146.474,3223.47H1103.758V1955.974
				c0-26.874,21.785-48.659,48.659-48.659h945.398c26.874,0,48.659,21.785,48.659,48.659V3223.47z"/>
			
				<linearGradient id="SVGID_00000114767050981195539090000014113826777778077879_" gradientUnits="userSpaceOnUse" x1="1481.2006" y1="1986.2802" x2="-168.1674" y2="4505.147">
				<stop  offset="0" style="stop-color:#FF928E"/>
				<stop  offset="1" style="stop-color:#FE7062"/>
			</linearGradient>
			<path style="fill:url(#SVGID_00000114767050981195539090000014113826777778077879_);" d="M1413.504,3223.47H532.707
				c-9.769,0-17.688-7.919-17.688-17.688v-863.258c0-26.874,21.785-48.659,48.659-48.659h801.167
				c26.874,0,48.659,21.785,48.659,48.659V3223.47z"/>
			<g>
				
					<linearGradient id="SVGID_00000136385018882738473820000015029780306650647688_" gradientUnits="userSpaceOnUse" x1="2352.6545" y1="1296.9303" x2="2342.1621" y2="1150.0366">
					<stop  offset="0" style="stop-color:#4F52FF"/>
					<stop  offset="1" style="stop-color:#4042E2"/>
				</linearGradient>
				<polygon style="fill:url(#SVGID_00000136385018882738473820000015029780306650647688_);" points="2351.099,1240.284 
					2298.563,1240.284 2215.979,997.355 2445.538,983.413 				"/>
				
					<linearGradient id="SVGID_00000003786308971808573680000004843220923835302820_" gradientUnits="userSpaceOnUse" x1="2413.9771" y1="1057.3907" x2="2335.2844" y2="648.1877">
					<stop  offset="0" style="stop-color:#4F52FF"/>
					<stop  offset="1" style="stop-color:#4042E2"/>
				</linearGradient>
				<path style="fill:url(#SVGID_00000003786308971808573680000004843220923835302820_);" d="M2076.245,546.018
					c-0.26,20.504-0.26,421.955,203.533,487.147c203.793,65.193,295.843-274.477,288.539-516.386L2076.245,546.018z"/>
				
					<linearGradient id="SVGID_00000088106036697383832680000008817877046299782806_" gradientUnits="userSpaceOnUse" x1="2327.9392" y1="1246.0159" x2="2308.6162" y2="1562.4365">
					<stop  offset="0" style="stop-color:#4F52FF"/>
					<stop  offset="1" style="stop-color:#4042E2"/>
				</linearGradient>
				
					<rect x="2161.927" y="1277.138" style="fill:url(#SVGID_00000088106036697383832680000008817877046299782806_);" width="325.808" height="39.557"/>
				
					<linearGradient id="SVGID_00000078019382223807495090000016485380326405173437_" gradientUnits="userSpaceOnUse" x1="2469.478" y1="1119.1616" x2="2071.3835" y2="1553.9404">
					<stop  offset="0" style="stop-color:#4F52FF"/>
					<stop  offset="1" style="stop-color:#4042E2"/>
				</linearGradient>
				<polygon style="fill:url(#SVGID_00000078019382223807495090000016485380326405173437_);" points="2487.735,1277.138 
					2161.927,1277.138 2244.384,1232.901 2405.278,1232.901 				"/>
				
					<linearGradient id="SVGID_00000159459547387647260300000000128519344512954025_" gradientUnits="userSpaceOnUse" x1="2670.1445" y1="66.7674" x2="1544.676" y2="1565.3203">
					<stop  offset="0" style="stop-color:#4F52FF"/>
					<stop  offset="1" style="stop-color:#4042E2"/>
				</linearGradient>
				<path style="fill:url(#SVGID_00000159459547387647260300000000128519344512954025_);" d="M2052.627,489.057
					c-17.889,1.088-32.523,14.332-32.523,29.431v30.878c0,15.098,14.644,26.663,32.541,25.7l558.521-30.051
					c17.899-0.963,32.543-14.104,32.543-29.201v-35.269c0-15.099-14.636-26.561-32.524-25.473L2052.627,489.057z"/>
				
					<linearGradient id="SVGID_00000047744985661965373440000008750406964326416047_" gradientUnits="userSpaceOnUse" x1="2681.8315" y1="771.2343" x2="2152.6204" y2="1433.4257">
					<stop  offset="0" style="stop-color:#4F52FF"/>
					<stop  offset="1" style="stop-color:#4042E2"/>
				</linearGradient>
				<path style="fill:url(#SVGID_00000047744985661965373440000008750406964326416047_);" d="M2424.094,1065.073
					c-13.017,0-24.246-8.225-25.759-19.374c-1.626-11.987,8.594-22.817,22.83-24.192c2.711-0.272,190.135-20.062,207.905-122.646
					c2.997-17.296,2.664-39.892-15.935-49.319c-15.351-7.786-40.483-5.311-58.454,5.754c-10.217,6.29-21.397,17.31-16.642,34.081
					c3.329,11.74-5.277,23.528-19.225,26.331c-13.941,2.8-27.947-4.444-31.276-16.184c-8.621-30.406,5.02-60.129,36.491-79.506
					c34.963-21.533,82.62-24.785,115.893-7.918c19.448,9.859,50.574,35.061,40.525,93.07
					c-9.936,57.357-57.831,103.303-138.505,132.872c-57.93,21.233-112.57,26.67-114.867,26.891
					C2426.074,1065.026,2425.079,1065.073,2424.094,1065.073z"/>
				
					<linearGradient id="SVGID_00000142160196276375529620000008120536193602808464_" gradientUnits="userSpaceOnUse" x1="8208.2295" y1="771.2344" x2="7679.0186" y2="1433.4257" gradientTransform="matrix(-1 0 0 1 10180.1963 0)">
					<stop  offset="0" style="stop-color:#4F52FF"/>
					<stop  offset="1" style="stop-color:#4042E2"/>
				</linearGradient>
				<path style="fill:url(#SVGID_00000142160196276375529620000008120536193602808464_);" d="M2229.704,1065.073
					c13.017,0,24.246-8.225,25.76-19.374c1.626-11.987-8.595-22.817-22.83-24.192c-2.711-0.272-190.136-20.062-207.905-122.646
					c-2.997-17.296-2.664-39.892,15.934-49.319c15.352-7.786,40.484-5.311,58.455,5.754c10.216,6.29,21.396,17.31,16.642,34.081
					c-3.329,11.74,5.277,23.528,19.224,26.331c13.941,2.8,27.948-4.444,31.276-16.184c8.621-30.406-5.02-60.129-36.491-79.506
					c-34.963-21.533-82.62-24.785-115.893-7.918c-19.448,9.859-50.574,35.061-40.525,93.07
					c9.935,57.357,57.83,103.303,138.504,132.872c57.93,21.233,112.57,26.67,114.867,26.891
					C2227.725,1065.026,2228.719,1065.073,2229.704,1065.073z"/>
				<path style="fill:#FFFFFF;" d="M2457.767,514.484c-2.238,0-4.112-1.753-4.234-4.017c-0.126-2.34,1.67-4.34,4.01-4.467
					l49.879-2.682c2.348-0.091,4.34,1.669,4.466,4.01c0.127,2.34-1.67,4.34-4.01,4.467L2458,514.478
					C2457.923,514.482,2457.844,514.484,2457.767,514.484z"/>
				<path style="fill:#FFFFFF;" d="M2076.223,535.013c-2.239,0-4.112-1.753-4.234-4.017c-0.126-2.34,1.67-4.34,4.01-4.467
					l297.983-16.031c2.329-0.137,4.34,1.67,4.466,4.01c0.126,2.34-1.67,4.34-4.01,4.467l-297.983,16.031
					C2076.378,535.011,2076.299,535.013,2076.223,535.013z"/>
				<path style="fill:#FFFFFF;" d="M2306.956,987.657c-0.163,0-0.327-0.008-0.491-0.027c-53.959-6.207-97.096-50.146-128.21-130.597
					c-25.694-66.435-37.82-144.181-43.468-197.703c-0.245-2.331,1.444-4.421,3.776-4.667c2.336-0.222,4.421,1.445,4.667,3.776
					c9.696,91.879,45.104,307.058,164.204,320.756c2.33,0.27,4,2.373,3.733,4.703
					C2310.917,986.062,2309.083,987.657,2306.956,987.657z"/>
				<path style="fill:#FFFFFF;" d="M2135.405,621.15c-2.219,0-4.085-1.725-4.232-3.969c-0.796-12.251-1.009-19.298-1.018-19.592
					c-0.071-2.344,1.774-4.299,4.116-4.369c2.512-0.155,4.301,1.774,4.369,4.116c0.002,0.07,0.22,7.21,1.005,19.294
					c0.151,2.34-1.623,4.359-3.961,4.512C2135.592,621.148,2135.498,621.15,2135.405,621.15z"/>
			</g>
			<g>
				<path style="fill:#FFFFFF;" d="M920.59,1829.727c-2.967,2.868-5.902,5.773-8.794,8.716c-2.366,2.411-2.33,6.285,0.08,8.653
					c1.191,1.169,2.74,1.752,4.286,1.752c1.585,0,3.17-0.611,4.365-1.83c2.816-2.868,5.671-5.697,8.563-8.489
					c2.43-2.346,2.497-6.219,0.151-8.651C926.895,1827.451,923.028,1827.381,920.59,1829.727z"/>
				<path style="fill:#FFFFFF;" d="M787.975,2056.17c0.693,0.253,1.406,0.374,2.103,0.374c2.493,0,4.839-1.537,5.743-4.015
					c1.398-3.805,2.816-7.597,4.274-11.371c1.219-3.152-0.354-6.693-3.505-7.908c-3.158-1.219-6.695,0.354-7.91,3.507
					c-1.482,3.837-2.931,7.693-4.345,11.562C783.172,2051.492,784.801,2055.007,787.975,2056.17z"/>
				<path style="fill:#FFFFFF;" d="M802.747,2018.133c0.793,0.343,1.617,0.504,2.425,0.504c2.366,0,4.62-1.382,5.62-3.694
					c1.605-3.722,3.242-7.424,4.911-11.108c1.394-3.077,0.028-6.703-3.047-8.095c-3.083-1.402-6.707-0.032-8.097,3.049
					c-1.701,3.748-3.365,7.517-4.998,11.303C798.219,2013.194,799.649,2016.795,802.747,2018.133z"/>
				<path style="fill:#FFFFFF;" d="M755.484,2174.047c0.422,0.088,0.844,0.131,1.258,0.131c2.832,0,5.381-1.981,5.982-4.867
					c0.828-3.959,1.685-7.918,2.565-11.873c0.737-3.298-1.338-6.568-4.636-7.303c-3.286-0.731-6.568,1.338-7.3,4.638
					c-0.896,4.007-1.764,8.017-2.605,12.032C750.055,2170.112,752.174,2173.354,755.484,2174.047z"/>
				<path style="fill:#FFFFFF;" d="M764.457,2134.271c0.51,0.129,1.024,0.193,1.525,0.193c2.724,0,5.214-1.836,5.922-4.6
					c1.004-3.921,2.039-7.836,3.103-11.741c0.888-3.26-1.035-6.621-4.297-7.51c-3.254-0.89-6.619,1.035-7.508,4.295
					c-1.079,3.961-2.127,7.936-3.15,11.917C759.216,2130.097,761.183,2133.43,764.457,2134.271z"/>
				<path style="fill:#FFFFFF;" d="M819.714,1981.017c0.884,0.45,1.828,0.663,2.756,0.663c2.234,0,4.385-1.227,5.464-3.354
					c1.832-3.61,3.696-7.201,5.592-10.769c1.585-2.983,0.45-6.687-2.533-8.272c-2.975-1.593-6.687-0.452-8.268,2.529
					c-1.936,3.636-3.839,7.298-5.703,10.981C815.492,1975.81,816.699,1979.49,819.714,1981.017z"/>
				<path style="fill:#FFFFFF;" d="M860.725,1910.526c1.067,0.745,2.29,1.103,3.501,1.103c1.932,0,3.831-0.91,5.018-2.613
					c2.314-3.31,4.664-6.588,7.049-9.838c1.999-2.724,1.414-6.552-1.31-8.551c-2.72-1.997-6.552-1.416-8.551,1.31
					c-2.441,3.326-4.847,6.683-7.217,10.068C857.28,1904.777,857.957,1908.59,860.725,1910.526z"/>
				<path style="fill:#FFFFFF;" d="M888.891,1879.149c1.764,0,3.513-0.759,4.72-2.224c2.565-3.105,5.166-6.177,7.806-9.214
					c2.218-2.549,1.952-6.412-0.597-8.631c-2.549-2.219-6.412-1.948-8.635,0.601c-2.708,3.116-5.377,6.269-8.009,9.457
					c-2.147,2.605-1.78,6.46,0.829,8.611C886.139,1878.691,887.521,1879.149,888.891,1879.149z"/>
				<path style="fill:#FFFFFF;" d="M838.999,1945.055c0.976,0.583,2.055,0.86,3.119,0.86c2.087,0,4.122-1.067,5.261-2.991
					c2.071-3.475,4.17-6.926,6.309-10.349c1.788-2.866,0.916-6.639-1.952-8.43c-2.86-1.788-6.635-0.914-8.427,1.95
					c-2.183,3.499-4.333,7.026-6.444,10.576C835.135,1939.574,836.091,1943.328,838.999,1945.055z"/>
				<path style="fill:#FFFFFF;" d="M775.246,2094.935c0.601,0.185,1.215,0.275,1.812,0.275c2.609,0,5.03-1.687,5.839-4.313
					c1.199-3.873,2.422-7.737,3.672-11.588c1.044-3.212-0.713-6.663-3.927-7.709c-3.21-1.04-6.667,0.717-7.711,3.929
					c-1.266,3.907-2.509,7.826-3.72,11.755C770.212,2090.514,772.02,2093.939,775.246,2094.935z"/>
				<path style="fill:#FFFFFF;" d="M748.227,2214.157c0.339,0.056,0.673,0.082,1.008,0.082c2.935,0,5.528-2.123,6.026-5.118
					c0.665-3.987,1.346-7.975,2.059-11.964c0.594-3.326-1.617-6.504-4.947-7.097c-3.318-0.607-6.5,1.617-7.097,4.947
					c-0.721,4.037-1.418,8.077-2.087,12.116C742.639,2210.453,744.893,2213.604,748.227,2214.157z"/>
				<path style="fill:#FFFFFF;" d="M951.6,1802.455c-3.226,2.579-6.412,5.201-9.559,7.866c-2.577,2.185-2.896,6.044-0.709,8.621
					c1.211,1.428,2.931,2.163,4.668,2.163c1.398,0,2.804-0.476,3.955-1.452c3.055-2.589,6.146-5.136,9.284-7.643
					c2.637-2.109,3.067-5.958,0.956-8.599C958.088,1800.776,954.237,1800.344,951.6,1802.455z"/>
				<path style="fill:#FFFFFF;" d="M1021.343,1757.951c-3.748,1.804-7.46,3.672-11.124,5.606c-2.991,1.575-4.138,5.275-2.565,8.264
					c1.099,2.079,3.222,3.268,5.421,3.268c0.96,0,1.94-0.229,2.848-0.707c3.537-1.866,7.113-3.666,10.73-5.407
					c3.043-1.466,4.321-5.122,2.856-8.167C1028.042,1757.768,1024.39,1756.492,1021.343,1757.951z"/>
				<path style="fill:#FFFFFF;" d="M1708.616,1297.705c-2.907,2.897-5.795,5.817-8.663,8.752c-2.362,2.418-2.314,6.291,0.1,8.653
					c1.191,1.161,2.736,1.741,4.277,1.741c1.589,0,3.178-0.615,4.377-1.842c2.832-2.9,5.68-5.779,8.547-8.641
					c2.394-2.386,2.398-6.259,0.012-8.651C1714.877,1295.323,1711.006,1295.317,1708.616,1297.705z"/>
				<path style="fill:#FFFFFF;" d="M1680.195,1327.319c-2.78,3.025-5.536,6.064-8.272,9.122c-2.254,2.517-2.039,6.384,0.478,8.639
					c1.167,1.045,2.625,1.559,4.078,1.559c1.677,0,3.349-0.687,4.56-2.037c2.7-3.019,5.421-6.022,8.165-9.007
					c2.286-2.487,2.123-6.359-0.366-8.645C1686.348,1324.668,1682.477,1324.829,1680.195,1327.319z"/>
				<path style="fill:#FFFFFF;" d="M1653.096,1358.143c-2.649,3.141-5.269,6.297-7.87,9.471c-2.143,2.613-1.764,6.466,0.848,8.609
					c1.135,0.934,2.513,1.388,3.875,1.388c1.768,0,3.525-0.763,4.731-2.238c2.573-3.135,5.166-6.251,7.774-9.352
					c2.175-2.585,1.84-6.444-0.741-8.619C1659.13,1355.228,1655.271,1355.561,1653.096,1358.143z"/>
				<path style="fill:#FFFFFF;" d="M1769.306,1242.388c-3.182,2.619-6.333,5.265-9.455,7.934c-2.573,2.194-2.876,6.056-0.681,8.625
					c1.211,1.418,2.927,2.145,4.656,2.145c1.402,0,2.816-0.482,3.967-1.466c3.071-2.621,6.165-5.219,9.292-7.794
					c2.609-2.149,2.983-6.004,0.832-8.611C1775.774,1240.611,1771.915,1240.241,1769.306,1242.388z"/>
				<path style="fill:#FFFFFF;" d="M1738.308,1269.365c-3.031,2.766-6.042,5.556-9.037,8.364c-2.469,2.312-2.593,6.183-0.279,8.647
					c1.203,1.285,2.828,1.934,4.461,1.934c1.502,0,3.003-0.548,4.182-1.655c2.955-2.772,5.93-5.522,8.922-8.252
					c2.493-2.278,2.672-6.147,0.394-8.643C1744.676,1267.266,1740.805,1267.083,1738.308,1269.365z"/>
				<path style="fill:#FFFFFF;" d="M1588.495,1455.333c-2.84-1.83-6.627-1.008-8.451,1.834c-2.222,3.449-4.421,6.914-6.603,10.393
					c-1.788,2.864-0.924,6.637,1.944,8.432c1.008,0.631,2.131,0.932,3.238,0.932c2.035,0,4.031-1.018,5.19-2.872
					c2.151-3.435,4.325-6.856,6.516-10.266C1592.16,1460.947,1591.339,1457.161,1588.495,1455.333z"/>
				<path style="fill:#FFFFFF;" d="M1566.932,1489.944c-2.923-1.709-6.667-0.727-8.372,2.188c-2.071,3.543-4.126,7.097-6.157,10.662
					c-1.669,2.937-0.645,6.673,2.294,8.344c0.956,0.544,1.991,0.803,3.019,0.803c2.127,0,4.198-1.113,5.321-3.095
					c2.007-3.523,4.031-7.034,6.082-10.532C1570.828,1495.398,1569.848,1491.65,1566.932,1489.944z"/>
				<path style="fill:#FFFFFF;" d="M1611.504,1421.657c-2.76-1.944-6.579-1.286-8.527,1.476c-2.362,3.355-4.708,6.723-7.03,10.108
					c-1.912,2.786-1.203,6.594,1.585,8.505c1.055,0.727,2.258,1.073,3.453,1.073c1.948,0,3.863-0.928,5.05-2.656
					c2.294-3.342,4.608-6.669,6.942-9.981C1614.925,1427.42,1614.264,1423.604,1611.504,1421.657z"/>
				<path style="fill:#FFFFFF;" d="M1635.918,1388.992c-2.672-2.063-6.52-1.565-8.579,1.111c-2.505,3.25-4.99,6.516-7.456,9.798
					c-2.027,2.702-1.482,6.538,1.219,8.565c1.103,0.828,2.394,1.227,3.668,1.227c1.86,0,3.696-0.844,4.895-2.443
					c2.437-3.242,4.891-6.468,7.364-9.678C1639.093,1394.895,1638.595,1391.053,1635.918,1388.992z"/>
				<path style="fill:#FFFFFF;" d="M1546.839,1525.438c-2.987-1.585-6.691-0.448-8.272,2.537c-1.924,3.624-3.823,7.263-5.699,10.911
					c-1.545,3.005-0.362,6.693,2.641,8.24c0.896,0.46,1.852,0.679,2.796,0.679c2.218,0,4.357-1.213,5.444-3.32
					c1.852-3.604,3.732-7.195,5.628-10.775C1550.962,1530.725,1549.826,1527.023,1546.839,1525.438z"/>
				<path style="fill:#FFFFFF;" d="M1875.344,1178.4c-3.883,1.394-7.814,2.917-11.686,4.525c-3.118,1.296-4.6,4.877-3.302,7.995
					c0.976,2.354,3.254,3.774,5.652,3.774c0.781,0,1.577-0.151,2.346-0.47c3.684-1.531,7.428-2.981,11.124-4.309
					c3.182-1.141,4.835-4.644,3.692-7.824C1882.027,1178.906,1878.518,1177.259,1875.344,1178.4z"/>
				<path style="fill:#FFFFFF;" d="M1837.356,1195.508c-3.652,1.973-7.269,4.023-10.849,6.139c-2.911,1.719-3.879,5.468-2.159,8.378
					c1.139,1.934,3.178,3.007,5.273,3.007c1.055,0,2.127-0.273,3.107-0.85c3.449-2.037,6.926-4.011,10.443-5.909
					c2.975-1.605,4.082-5.317,2.477-8.29C1844.047,1195.012,1840.331,1193.903,1837.356,1195.508z"/>
				<path style="fill:#FFFFFF;" d="M1915.916,1167.929c-2.995,0.452-5.97,0.98-8.929,1.579c-1.167,0.239-2.338,0.486-3.497,0.743
					c-3.302,0.727-5.385,3.991-4.656,7.291c0.629,2.856,3.158,4.803,5.966,4.803c0.438,0,0.88-0.048,1.322-0.145
					c1.095-0.241,2.198-0.476,3.298-0.699c2.756-0.56,5.536-1.052,8.328-1.476c3.338-0.506,5.636-3.622,5.134-6.964
					C1922.372,1169.72,1919.258,1167.422,1915.916,1167.929z"/>
				<path style="fill:#FFFFFF;" d="M1802.128,1217.366c-3.393,2.364-6.751,4.777-10.076,7.237c-2.716,2.007-3.294,5.837-1.286,8.555
					c1.199,1.625,3.051,2.483,4.923,2.483c1.263,0,2.537-0.388,3.632-1.197c3.238-2.392,6.508-4.741,9.806-7.042
					c2.772-1.934,3.449-5.747,1.517-8.517C1808.712,1216.115,1804.9,1215.438,1802.128,1217.366z"/>
				<path style="fill:#FFFFFF;" d="M1181.809,1721.549h-0.028c-4.142,0.02-8.288,0.109-12.434,0.265
					c-3.377,0.127-6.014,2.967-5.887,6.343c0.127,3.298,2.84,5.889,6.109,5.889c0.08,0,0.155-0.002,0.235-0.004
					c4.015-0.151,8.025-0.237,12.036-0.257c3.381-0.016,6.102-2.768,6.086-6.147
					C1187.911,1724.267,1185.175,1721.549,1181.809,1721.549z"/>
				<path style="fill:#FFFFFF;" d="M1223.19,1723.632c-4.122-0.438-8.26-0.808-12.406-1.109c-3.338-0.209-6.293,2.292-6.54,5.659
					c-0.243,3.371,2.29,6.301,5.663,6.544c4.003,0.289,8.001,0.647,11.988,1.073c0.219,0.022,0.438,0.034,0.653,0.034
					c3.087,0,5.743-2.33,6.078-5.468C1228.985,1727.003,1226.552,1723.99,1223.19,1723.632z"/>
				<path style="fill:#FFFFFF;" d="M1264.137,1730.426c-4.043-0.922-8.113-1.77-12.203-2.547c-3.31-0.621-6.52,1.547-7.153,4.869
					c-0.629,3.32,1.549,6.522,4.871,7.151c3.947,0.749,7.87,1.569,11.769,2.455c0.458,0.105,0.916,0.155,1.366,0.155
					c2.792,0,5.313-1.926,5.958-4.761C1269.494,1734.453,1267.435,1731.175,1264.137,1730.426z"/>
				<path style="fill:#FFFFFF;" d="M1377.232,1781.396c-3.322-2.481-6.755-4.923-10.204-7.257c-2.796-1.89-6.603-1.157-8.491,1.641
					c-1.896,2.798-1.163,6.602,1.637,8.493c3.286,2.226,6.564,4.554,9.734,6.924c1.095,0.82,2.382,1.217,3.656,1.217
					c1.864,0,3.7-0.848,4.903-2.455C1380.49,1787.253,1379.937,1783.419,1377.232,1781.396z"/>
				<path style="fill:#FFFFFF;" d="M1342.025,1759.1c-3.624-1.936-7.38-3.835-11.164-5.644c-3.043-1.458-6.703-0.169-8.161,2.878
					c-1.458,3.049-0.167,6.701,2.88,8.159c3.608,1.726,7.173,3.525,10.686,5.401c0.92,0.49,1.904,0.723,2.876,0.723
					c2.187,0,4.301-1.177,5.401-3.24C1346.135,1764.395,1345.008,1760.689,1342.025,1759.1z"/>
				<path style="fill:#FFFFFF;" d="M1304.005,1742.166c-3.903-1.428-7.838-2.78-11.809-4.057c-3.214-1.031-6.659,0.733-7.699,3.949
					c-1.036,3.216,0.733,6.663,3.951,7.697c3.815,1.229,7.603,2.529,11.355,3.901c0.693,0.255,1.402,0.374,2.099,0.374
					c2.497,0,4.839-1.539,5.747-4.019C1308.808,1746.839,1307.179,1743.327,1304.005,1742.166z"/>
				<path style="fill:#FFFFFF;" d="M985.111,1778.22c-1.884,1.215-3.748,2.443-5.6,3.694c-1.585,1.071-3.162,2.151-4.732,3.242
					c-2.772,1.93-3.461,5.741-1.533,8.515c1.191,1.711,3.095,2.627,5.03,2.627c1.203,0,2.422-0.354,3.485-1.093
					c1.525-1.061,3.055-2.111,4.6-3.15c1.78-1.203,3.577-2.388,5.381-3.555c2.84-1.834,3.656-5.62,1.824-8.457
					C991.731,1777.2,987.939,1776.388,985.111,1778.22z"/>
				<path style="fill:#FFFFFF;" d="M1099.569,1730.888c-4.043,0.908-8.073,1.884-12.088,2.927c-3.27,0.848-5.229,4.188-4.377,7.46
					c0.713,2.754,3.194,4.58,5.914,4.58c0.51,0,1.027-0.064,1.541-0.199c3.883-1.008,7.782-1.952,11.694-2.832
					c3.298-0.741,5.369-4.013,4.628-7.31C1106.14,1732.219,1102.878,1730.153,1099.569,1730.888z"/>
				<path style="fill:#FFFFFF;" d="M1059.701,1742.191c-3.923,1.352-7.822,2.772-11.693,4.258c-3.154,1.209-4.732,4.748-3.521,7.902
					c0.936,2.433,3.254,3.929,5.715,3.929c0.725,0,1.47-0.131,2.187-0.408c3.744-1.434,7.511-2.806,11.303-4.114
					c3.19-1.101,4.891-4.584,3.788-7.778C1066.376,1742.787,1062.899,1741.086,1059.701,1742.191z"/>
				<path style="fill:#FFFFFF;" d="M1140.424,1724c-4.122,0.466-8.232,1.002-12.331,1.603c-3.346,0.488-5.656,3.596-5.17,6.938
					c0.446,3.043,3.063,5.231,6.046,5.231c0.295,0,0.597-0.02,0.896-0.064c3.971-0.583,7.95-1.099,11.936-1.553
					c3.358-0.38,5.771-3.411,5.389-6.769C1146.808,1726.029,1143.777,1723.602,1140.424,1724z"/>
				<path style="fill:#FFFFFF;" d="M1469.713,1713.798c-3.25-0.914-6.631,0.972-7.551,4.22c-1.119,3.951-2.21,7.906-3.278,11.867
					c-0.88,3.262,1.052,6.619,4.313,7.5c0.534,0.143,1.067,0.213,1.597,0.213c2.696,0,5.166-1.798,5.903-4.526
					c1.055-3.913,2.131-7.82,3.238-11.719C1474.854,1718.099,1472.963,1714.718,1469.713,1713.798z"/>
				<path style="fill:#FFFFFF;" d="M1481.924,1674.888c-3.21-1.059-6.671,0.683-7.734,3.887c-1.286,3.897-2.549,7.804-3.784,11.721
					c-1.02,3.22,0.769,6.657,3.991,7.675c0.613,0.195,1.235,0.287,1.844,0.287c2.597,0,5.006-1.669,5.831-4.277
					c1.223-3.861,2.465-7.717,3.74-11.562C1486.87,1679.411,1485.126,1675.95,1481.924,1674.888z"/>
				<path style="fill:#FFFFFF;" d="M1495.768,1636.528c-3.17-1.189-6.691,0.4-7.886,3.561c-1.454,3.839-2.88,7.687-4.281,11.544
					c-1.155,3.176,0.482,6.685,3.66,7.84c0.689,0.251,1.394,0.37,2.087,0.37c2.501,0,4.847-1.543,5.751-4.029
					c1.386-3.809,2.796-7.609,4.23-11.401C1500.52,1641.254,1498.926,1637.723,1495.768,1636.528z"/>
				<path style="fill:#FFFFFF;" d="M1511.221,1598.793c-3.111-1.328-6.699,0.114-8.029,3.222c-1.609,3.776-3.198,7.559-4.763,11.355
					c-1.286,3.122,0.203,6.699,3.33,7.985c0.761,0.315,1.549,0.464,2.326,0.464c2.406,0,4.684-1.428,5.656-3.79
					c1.545-3.744,3.115-7.48,4.708-11.208C1515.774,1603.716,1514.328,1600.121,1511.221,1598.793z"/>
				<path style="fill:#FFFFFF;" d="M1528.26,1561.739c-3.043-1.454-6.699-0.165-8.157,2.884c-1.768,3.706-3.513,7.42-5.237,11.144
					c-1.418,3.069-0.08,6.703,2.987,8.121c0.833,0.382,1.705,0.566,2.565,0.566c2.31,0,4.521-1.318,5.556-3.553
					c1.697-3.68,3.425-7.346,5.17-11.004C1532.601,1566.847,1531.307,1563.195,1528.26,1561.739z"/>
				<path style="fill:#FFFFFF;" d="M1450.396,1793.018c-3.338-0.655-6.524,1.539-7.161,4.859c-0.773,4.033-1.513,8.071-2.234,12.114
					c-0.589,3.328,1.629,6.502,4.955,7.093c0.362,0.064,0.721,0.096,1.079,0.096c2.908,0,5.488-2.085,6.014-5.05
					c0.709-3.991,1.442-7.974,2.207-11.954C1455.889,1796.857,1453.714,1793.653,1450.396,1793.018z"/>
				<path style="fill:#FFFFFF;" d="M1443.351,1833.186c-3.338-0.496-6.448,1.826-6.934,5.17c-0.263,1.778-0.518,3.559-0.765,5.339
					c-0.155-0.759-0.462-1.502-0.92-2.185c-2.314-3.435-4.759-6.872-7.276-10.22c-2.027-2.702-5.871-3.238-8.563-1.215
					c-2.7,2.031-3.246,5.865-1.219,8.567c2.39,3.176,4.712,6.44,6.91,9.702c1.888,2.802,5.688,3.547,8.491,1.657
					c0.884-0.595,1.561-1.382,2.019-2.268c-0.127,0.94-0.255,1.882-0.374,2.824c-0.446,3.349,1.912,6.424,5.257,6.866
					c0.275,0.038,0.542,0.054,0.813,0.054c3.019,0,5.648-2.238,6.054-5.315c0.534-4.017,1.091-8.029,1.677-12.038
					C1449.01,1836.781,1446.696,1833.676,1443.351,1833.186z"/>
				<path style="fill:#FFFFFF;" d="M1399.608,1800.185c-2.457-2.318-6.333-2.203-8.651,0.255s-2.203,6.329,0.255,8.647
					c2.883,2.72,5.731,5.542,8.459,8.386c1.199,1.253,2.804,1.884,4.413,1.884c1.525,0,3.051-0.566,4.238-1.703
					c2.438-2.338,2.517-6.209,0.179-8.649C1405.634,1806.011,1402.639,1803.044,1399.608,1800.185z"/>
				<path style="fill:#FFFFFF;" d="M1459.198,1753.202c-3.286-0.785-6.588,1.249-7.368,4.538c-0.948,3.995-1.868,7.995-2.76,12.004
					c-0.737,3.298,1.342,6.568,4.64,7.302c0.446,0.102,0.892,0.149,1.334,0.149c2.804,0,5.333-1.938,5.966-4.787
					c0.88-3.953,1.788-7.902,2.728-11.841C1464.519,1757.28,1462.484,1753.982,1459.198,1753.202z"/>
				
					<ellipse transform="matrix(0.2298 -0.9732 0.9732 0.2298 334.822 2773.2703)" style="fill:#FFFFFF;" cx="1919.5" cy="1175.102" rx="56.817" ry="56.817"/>
				<path style="opacity:0.5;fill:#FFFFFF;" d="M1919.501,1294.396c-65.781,0-119.297-53.516-119.297-119.294
					c0-65.778,53.516-119.294,119.297-119.294c65.778,0,119.294,53.516,119.294,119.294
					C2038.796,1240.88,1985.28,1294.396,1919.501,1294.396z M1919.501,1081.431c-51.653,0-93.674,42.021-93.674,93.671
					c0,51.65,42.021,93.671,93.674,93.671c51.65,0,93.671-42.021,93.671-93.671
					C2013.172,1123.452,1971.151,1081.431,1919.501,1081.431z"/>
				<path style="opacity:0.5;fill:#FFFFFF;" d="M1919.501,1338.604c-90.157,0-163.505-73.345-163.505-163.502
					c0-90.157,73.349-163.502,163.505-163.502c90.157,0,163.502,73.345,163.502,163.502
					C2083.004,1265.259,2009.659,1338.604,1919.501,1338.604z M1919.501,1025.152c-82.686,0-149.953,67.267-149.953,149.95
					c0,82.683,67.267,149.95,149.953,149.95c82.683,0,149.95-67.267,149.95-149.95
					C2069.451,1092.42,2002.184,1025.152,1919.501,1025.152z"/>
			</g>
			<g>
				
					<linearGradient id="SVGID_00000133525489996114428840000014364279563409151620_" gradientUnits="userSpaceOnUse" x1="974.335" y1="877.4063" x2="1196.424" y2="1085.5056">
					<stop  offset="0" style="stop-color:#FF928E"/>
					<stop  offset="1" style="stop-color:#FE7062"/>
				</linearGradient>
				<path style="fill:url(#SVGID_00000133525489996114428840000014364279563409151620_);" d="M1314.801,1095.884l-69.991,107.675
					c32.559,63.431,68.724,98.448,104.904,115.094c6.461-39.519,29.54-72.322,46.486-91.806
					C1331.657,1190.135,1314.801,1095.884,1314.801,1095.884z"/>
				
					<linearGradient id="SVGID_00000013896733885024945400000003984875016093294235_" gradientUnits="userSpaceOnUse" x1="1607.6558" y1="1188.0358" x2="1081.8207" y2="1442.7656">
					<stop  offset="0" style="stop-color:#FEBBBA"/>
					<stop  offset="1" style="stop-color:#FF928E"/>
				</linearGradient>
				<path style="fill:url(#SVGID_00000013896733885024945400000003984875016093294235_);" d="M1555.271,1207.517
					c-71.657,42.412-122.867,39.924-159.071,19.33c-16.946,19.484-40.025,52.287-46.486,91.806
					c115.016,52.919,230.19-80.276,230.19-80.276L1555.271,1207.517z"/>
				
					<linearGradient id="SVGID_00000133490115853977045100000014412826418503525001_" gradientUnits="userSpaceOnUse" x1="1610.1637" y1="1193.2134" x2="1084.329" y2="1447.9431">
					<stop  offset="0" style="stop-color:#FEBBBA"/>
					<stop  offset="1" style="stop-color:#FF928E"/>
				</linearGradient>
				<path style="fill:url(#SVGID_00000133490115853977045100000014412826418503525001_);" d="M1559.171,1225.962
					c0,0-19.344-33.725,8.475-59.621c0,0,8.97-10.232,18.819,4.801c0,0,29.928-27.169,38.112-16.225
					c8.184,10.944,29.878,38.043,8.691,68.952C1611.84,1255.127,1568.62,1241.195,1559.171,1225.962z"/>
				
					<linearGradient id="SVGID_00000145769161221479909630000001959186690281604540_" gradientUnits="userSpaceOnUse" x1="532.8061" y1="2020.6925" x2="615.1279" y2="2020.6925">
					<stop  offset="0" style="stop-color:#090056"/>
					<stop  offset="1" style="stop-color:#020039"/>
				</linearGradient>
				<path style="fill:url(#SVGID_00000145769161221479909630000001959186690281604540_);" d="M541.093,1930.638
					c-6.228,3.748-9.411,11.644-7.926,19.38c5.841,30.445,25.045,110.863,71.69,158.471c3.081,3.143,7.562,2.864,10.271,0.03
					c-11.812-12.305-26.457-33.339-43.577-69.061C545.238,1984.557,540.365,1950.695,541.093,1930.638z"/>
				
					<linearGradient id="SVGID_00000123435209396719436830000012145012317581117834_" gradientUnits="userSpaceOnUse" x1="541.0261" y1="2015.517" x2="628.6278" y2="2015.517">
					<stop  offset="0" style="stop-color:#090056"/>
					<stop  offset="1" style="stop-color:#020039"/>
				</linearGradient>
				<path style="fill:url(#SVGID_00000123435209396719436830000012145012317581117834_);" d="M601.325,1929.501
					c0,0-30.075-16.36-60.022,0.991c-0.075,0.043-0.136,0.103-0.21,0.147c-0.728,20.057,4.145,53.918,30.458,108.82
					c17.12,35.722,31.766,56.755,43.577,69.061c0.857-0.896,1.547-2.036,1.946-3.421
					C625.836,2074.659,644.336,1990.085,601.325,1929.501z"/>
				
					<linearGradient id="SVGID_00000179616992792451937780000012312255804652443794_" gradientUnits="userSpaceOnUse" x1="584.7595" y1="1926.9373" x2="649.1785" y2="1926.9373">
					<stop  offset="0" style="stop-color:#FEBBBA"/>
					<stop  offset="1" style="stop-color:#FF928E"/>
				</linearGradient>
				<path style="fill:url(#SVGID_00000179616992792451937780000012312255804652443794_);" d="M644.764,1931.395l-27.254,26.149
					c-4.821,4.625-12.213,5.37-17.779,1.676c-4.855-3.223-10.26-8.508-13.858-17.073c-2.159-5.14-1.122-11.087,2.628-15.212
					l27.21-29.931c6.494-7.144,18.048-5.962,22.962,2.349l8.508,14.39C650.57,1919.474,649.569,1926.785,644.764,1931.395z"/>
				
					<linearGradient id="SVGID_00000010991755762923154940000016318442712698627489_" gradientUnits="userSpaceOnUse" x1="1525.6667" y1="1725.1213" x2="1649.0731" y2="1725.1213">
					<stop  offset="0" style="stop-color:#090056"/>
					<stop  offset="1" style="stop-color:#020039"/>
				</linearGradient>
				<path style="fill:url(#SVGID_00000010991755762923154940000016318442712698627489_);" d="M1525.667,1800.226
					c6.336,3.562,14.773,2.426,20.765-2.688c23.579-20.125,83.998-76.565,102.331-140.645c1.21-4.231-1.248-7.989-5.05-8.943
					c-4.86,16.35-15.906,39.478-38.499,72.015C1570.49,1769.974,1543.462,1790.946,1525.667,1800.226z"/>
				
					<linearGradient id="SVGID_00000117647813980959263890000008335852019912587949_" gradientUnits="userSpaceOnUse" x1="1494.9087" y1="1723.9679" x2="1643.7123" y2="1723.9679">
					<stop  offset="0" style="stop-color:#090056"/>
					<stop  offset="1" style="stop-color:#020039"/>
				</linearGradient>
				<path style="fill:url(#SVGID_00000117647813980959263890000008335852019912587949_);" d="M1494.909,1748.427
					c0,0,0.642,34.231,30.527,51.689c0.074,0.044,0.157,0.068,0.231,0.109c17.796-9.28,44.824-30.252,79.547-80.261
					c22.593-32.538,33.639-55.665,38.499-72.015c-1.203-0.302-2.534-0.338-3.935,0
					C1608.984,1655.377,1526.318,1681.093,1494.909,1748.427z"/>
				
					<linearGradient id="SVGID_00000088844399924746915370000006735985328869312648_" gradientUnits="userSpaceOnUse" x1="1455.4603" y1="1719.6582" x2="1526.2354" y2="1719.6582">
					<stop  offset="0" style="stop-color:#FEBBBA"/>
					<stop  offset="1" style="stop-color:#FF928E"/>
				</linearGradient>
				<path style="fill:url(#SVGID_00000088844399924746915370000006735985328869312648_);" d="M1492.8,1691.745l28.479,24.81
					c5.037,4.388,6.44,11.684,3.257,17.558c-2.776,5.124-7.557,10.979-15.766,15.327c-4.927,2.61-10.942,2.108-15.386-1.258
					l-32.242-24.427c-7.695-5.83-7.55-17.444,0.288-23.08l13.572-9.76C1480.409,1687.027,1487.779,1687.371,1492.8,1691.745z"/>
				
					<linearGradient id="SVGID_00000072984692704293043430000001213882261197068692_" gradientUnits="userSpaceOnUse" x1="605.6264" y1="1691.2874" x2="1082.4578" y2="1691.2874">
					<stop  offset="0" style="stop-color:#090056"/>
					<stop  offset="1" style="stop-color:#020039"/>
				</linearGradient>
				<path style="fill:url(#SVGID_00000072984692704293043430000001213882261197068692_);" d="M921.403,1440.641
					c0,0-55.571,189.316-91.499,272.525c0,0-62.805,9.58-101.677,32.293c-38.872,22.713-122.601,148.596-122.601,148.596
					s21.866,41.51,48.249,47.879l238.354-165.152l190.228-221.221l-9.029-102.607L921.403,1440.641z"/>
				
					<linearGradient id="SVGID_00000001661697393656561450000013155710803969656759_" gradientUnits="userSpaceOnUse" x1="908.5659" y1="1577.7581" x2="1494.9087" y2="1577.7581">
					<stop  offset="0" style="stop-color:#090056"/>
					<stop  offset="1" style="stop-color:#020039"/>
				</linearGradient>
				<path style="fill:url(#SVGID_00000001661697393656561450000013155710803969656759_);" d="M924.827,1425.197l-16.261,51.843
					c0,0,14.873,135.916,186.222,112.997c171.348-22.919,192.885-50.893,192.885-50.893s-14.875,86.806,172.489,191.176
					c0,0,28.48-21.499,34.748-45.912l-131.3-216.409c-18.263-28.386-35.2-35.863-68.549-30.648
					c-73.738,11.532-211.811,26.563-232.708,22.995L924.827,1425.197z"/>
				
					<linearGradient id="SVGID_00000012444430822879221190000018088280401090816191_" gradientUnits="userSpaceOnUse" x1="692.7928" y1="1339.7115" x2="1299.601" y2="1201.5619">
					<stop  offset="0" style="stop-color:#FF928E"/>
					<stop  offset="1" style="stop-color:#FE7062"/>
				</linearGradient>
				<path style="fill:url(#SVGID_00000012444430822879221190000018088280401090816191_);" d="M1058.653,1039.692
					c-49.935,2.54-128.866,26.276-179.853,73.216c15.672,17.3,39.786,45.428,57.76,73.214c16.061-15.08,39.126-27.639,71.6-35.683
					c-28.069,104.907-61.246,204.856-101.677,297.761c-2.53,5.814,0.352,12.541,6.34,14.628
					c31.285,10.902,123.545,36.867,197.543-4.949l164.057-234.911c17.644-25.263,29.242-54.245,33.899-84.706l6.478-42.377
					C1314.801,1095.884,1167.458,1034.16,1058.653,1039.692z"/>
				
					<linearGradient id="SVGID_00000065049899947454849240000007334359820776568722_" gradientUnits="userSpaceOnUse" x1="955.082" y1="1359.985" x2="642.1285" y2="806.8571">
					<stop  offset="0" style="stop-color:#FEBBBA"/>
					<stop  offset="1" style="stop-color:#FF928E"/>
				</linearGradient>
				<path style="fill:url(#SVGID_00000065049899947454849240000007334359820776568722_);" d="M969.18,1395.175
					c-7.13-15.744-31.541-30.454-43.192-36.775c-10.135-20.893-50.592-114.857,10.572-172.279
					c-17.975-27.786-42.088-55.914-57.76-73.214c-58.828,54.159-80.363,139.235,22.797,258.356
					c-5.631,29.34,12.742,63.504,22.676,68.292C928.851,1441.763,978.656,1416.099,969.18,1395.175z"/>
				
					<linearGradient id="SVGID_00000173133300985669766120000005219196559080029887_" gradientUnits="userSpaceOnUse" x1="1152.917" y1="1123.2686" x2="1185.6681" y2="1029.8677">
					<stop  offset="0" style="stop-color:#FEBBBA"/>
					<stop  offset="1" style="stop-color:#FF928E"/>
				</linearGradient>
				<path style="fill:url(#SVGID_00000173133300985669766120000005219196559080029887_);" d="M1169.469,977.297l-42.861,83.894
					c-2.615,5.118-1.837,11.304,2.003,15.58c10.379,11.56,34.891,30.335,77.529,16.88c4.701-1.483,8.084-5.616,8.799-10.493
					l11.161-76.191L1169.469,977.297z"/>
				<g>
					
						<linearGradient id="SVGID_00000017477722299705875400000008029109371482192796_" gradientUnits="userSpaceOnUse" x1="1246.1924" y1="930.713" x2="1102.4803" y2="1040.6746">
						<stop  offset="0" style="stop-color:#FEBBBA"/>
						<stop  offset="1" style="stop-color:#FF928E"/>
					</linearGradient>
					<path style="fill:url(#SVGID_00000017477722299705875400000008029109371482192796_);" d="M1240.923,879.881
						c0,0,25.139,57.749,26.828,88.059c1.688,30.31,8.22,49.978-26.828,56.082c-35.047,6.104-64.571-11.355-80.565-41.548
						c0,0-25.061-46.524-19.439-65.576S1240.923,879.881,1240.923,879.881z"/>
					
						<linearGradient id="SVGID_00000156579145266313019030000003094685635457587901_" gradientUnits="userSpaceOnUse" x1="1145.0255" y1="843.6476" x2="1278.8705" y2="1015.9727">
						<stop  offset="0" style="stop-color:#090056"/>
						<stop  offset="1" style="stop-color:#020039"/>
					</linearGradient>
					<path style="fill:url(#SVGID_00000156579145266313019030000003094685635457587901_);" d="M1172.333,960.766l1.995-0.879
						c2.54-1.12,3.626-4.143,2.35-6.608c-4.942-9.549-14.576-31.43-2.13-36.535c16.04-6.578,79.577-19.535,93.285-42.08
						c13.175-21.668,1.501-49.637-16.043-57.592c-1.174-0.532-2.558-0.11-3.16,1.03l-1.462,2.766
						c-1.001,1.894-3.797,1.607-4.393-0.451l0,0c-0.572-1.975-3.199-2.358-4.288-0.615c-4.214,6.745-15.59,17.68-46.013,23.294
						c-43.236,7.98-71.821,25.477-72.533,55.353c-0.045,1.898-2.064,2.953-3.686,1.965c-3.192-1.946-8.301-2.859-15.129,2.883
						c-11.874,9.984-7.015,35.884,19.015,57.188c1.236,1.012,1.227,2.943-0.112,3.814c-4.719,3.072-11.754,10.381,6.474,20.125
						c18.854,10.078,32.933,9.252,38.354,8.357c1.349-0.223,2.218-1.528,1.924-2.863l-5.786-26.259
						c-0.328-1.486,0.804-2.894,2.325-2.894H1172.333z"/>
					
						<linearGradient id="SVGID_00000043444333574996935420000004128468981219675545_" gradientUnits="userSpaceOnUse" x1="1228.3669" y1="907.4156" x2="1084.6543" y2="1017.3777">
						<stop  offset="0" style="stop-color:#FEBBBA"/>
						<stop  offset="1" style="stop-color:#FF928E"/>
					</linearGradient>
					<path style="fill:url(#SVGID_00000043444333574996935420000004128468981219675545_);" d="M1173.422,966.308
						c0,0-9.59-36.889-26.13-26.546c-16.539,10.343,8.583,41.333,21.879,42.713L1173.422,966.308z"/>
				</g>
			</g>
		</g>
		<g>
			
				<linearGradient id="SVGID_00000127009977098148077630000008395619581739481783_" gradientUnits="userSpaceOnUse" x1="4296.5347" y1="3170.1077" x2="4413.7607" y2="3170.1077" gradientTransform="matrix(-1 0 0 1 7313.7891 0)">
				<stop  offset="0" style="stop-color:#090056"/>
				<stop  offset="1" style="stop-color:#020039"/>
			</linearGradient>
			<path style="fill:url(#SVGID_00000127009977098148077630000008395619581739481783_);" d="M2900.03,3214.389
				c-0.013-0.926,0.044-1.864,0.27-2.809c13.203-55.532,78.733-90.12,78.733-90.12l25.968,2.159
				c14.93,48.946,13.012,78.964,10.614,92.335c-0.067,0.374-0.175,0.73-0.267,1.094
				C2993.927,3219.077,2949.836,3220.404,2900.03,3214.389z"/>
			
				<linearGradient id="SVGID_00000008841036042055154550000004478247738405480071_" gradientUnits="userSpaceOnUse" x1="4590.7212" y1="3034.105" x2="4163.0225" y2="3369.9351" gradientTransform="matrix(-1 0 0 1 7313.7891 0)">
				<stop  offset="0" style="stop-color:#090056"/>
				<stop  offset="1" style="stop-color:#020039"/>
			</linearGradient>
			<path style="fill:url(#SVGID_00000008841036042055154550000004478247738405480071_);" d="M3015.347,3217.047
				c-1.157,4.464-4.264,7.94-8.241,8.828c-30.471,6.798-78.902,1.326-99.236-1.494c-4.487-0.622-7.766-5.023-7.84-9.992
				C2949.836,3220.404,2993.927,3219.077,3015.347,3217.047z"/>
			
				<linearGradient id="SVGID_00000159466914098382135750000008702112103370396090_" gradientUnits="userSpaceOnUse" x1="4329.6426" y1="3028.7231" x2="4305.9321" y2="3235.6511" gradientTransform="matrix(-1 0 0 1 7313.7891 0)">
				<stop  offset="0" style="stop-color:#FEBBBA"/>
				<stop  offset="1" style="stop-color:#FF928E"/>
			</linearGradient>
			<path style="fill:url(#SVGID_00000159466914098382135750000008702112103370396090_);" d="M3015.442,3082.586l-10.998,56.167
				c-0.806,4.117-3.787,7.199-7.397,7.559c-4.42,0.439-10.712,0.697-17.038-0.289c-5.675-0.884-9.625-7.001-8.619-13.565
				l7.645-49.872H3015.442z"/>
			
				<linearGradient id="SVGID_00000123417966235413641250000001810419582390266283_" gradientUnits="userSpaceOnUse" x1="4665.9932" y1="3130.7073" x2="4238.4116" y2="3466.4456" gradientTransform="matrix(-1 0 0 1 7313.7891 0)">
				<stop  offset="0" style="stop-color:#090056"/>
				<stop  offset="1" style="stop-color:#020039"/>
			</linearGradient>
			<path style="fill:url(#SVGID_00000123417966235413641250000001810419582390266283_);" d="M2787.569,3216.483
				c28.679-0.853,43.513-4.436,51.181-7.761c0.017,3.026,0.002,6.105-0.091,9.295c-0.099,3.407-2.478,6.128-5.404,6.108
				l-157.466-1.078c-5.025-0.034-7.963-6.218-5.784-11.106C2690.653,3213.75,2743.236,3217.799,2787.569,3216.483z"/>
			
				<linearGradient id="SVGID_00000077295098932481084420000000133882541385565106_" gradientUnits="userSpaceOnUse" x1="4475.0386" y1="3173.4153" x2="4643.7837" y2="3173.4153" gradientTransform="matrix(-1 0 0 1 7313.7891 0)">
				<stop  offset="0" style="stop-color:#090056"/>
				<stop  offset="1" style="stop-color:#020039"/>
			</linearGradient>
			<path style="fill:url(#SVGID_00000077295098932481084420000000133882541385565106_);" d="M2670.005,3211.94
				c0.191-0.425,0.353-0.859,0.624-1.26c13.905-20.615,49.324-61.663,119.313-79.469l33.576-1.123c0,0,14.95,27.568,15.232,78.633
				c-7.668,3.325-22.502,6.909-51.181,7.761C2743.236,3217.799,2690.653,3213.75,2670.005,3211.94z"/>
			
				<linearGradient id="SVGID_00000148639335528831506700000018124023379015093647_" gradientUnits="userSpaceOnUse" x1="4511.8647" y1="3050.885" x2="4488.1719" y2="3257.658" gradientTransform="matrix(-1 0 0 1 7313.7891 0)">
				<stop  offset="0" style="stop-color:#FEBBBA"/>
				<stop  offset="1" style="stop-color:#FF928E"/>
			</linearGradient>
			<path style="fill:url(#SVGID_00000148639335528831506700000018124023379015093647_);" d="M2829.744,3076.106
				c-0.373,2.655-4.975,43.009-6.757,58.655c-0.423,3.719-2.961,6.595-6.163,7.001c-5.717,0.724-14.968,1.384-23.062-0.377
				c-4.366-0.949-7.528-5.399-7.528-10.574v-63.344L2829.744,3076.106z"/>
			
				<linearGradient id="SVGID_00000051367346484610338900000017990707815513002135_" gradientUnits="userSpaceOnUse" x1="4797.7983" y1="2106.3047" x2="4043.3694" y2="3276.9717" gradientTransform="matrix(-1 0 0 1 7313.7891 0)">
				<stop  offset="0" style="stop-color:#090056"/>
				<stop  offset="1" style="stop-color:#020039"/>
			</linearGradient>
			<path style="fill:url(#SVGID_00000051367346484610338900000017990707815513002135_);" d="M2856.68,2339.67
				c0,0-80.981,326.5-79.517,737.37c0.027,7.491,4.985,13.956,11.895,15.5c10.182,2.275,25.148,4.976,37.539,4.608
				c6.615-0.197,12.144-5.401,13.256-12.322c11.355-70.643,76.517-468.618,113.645-533.228c0,0,24.427,354.454,16.619,538.346
				c-0.194,4.573,2.962,8.539,7.248,9.064c6.502,0.797,16.902,1.403,30.138-0.089c5.025-0.566,9.078-4.595,9.796-9.901
				c8.089-59.788,54.641-415.669,52.662-672.032c-0.112-14.456-36.038-77.317-36.038-77.317H2856.68z"/>
			
				<linearGradient id="SVGID_00000112601752583165592840000017292677145899990189_" gradientUnits="userSpaceOnUse" x1="2713.8333" y1="1798.6709" x2="3684.3804" y2="2913.4902">
				<stop  offset="0" style="stop-color:#4F52FF"/>
				<stop  offset="1" style="stop-color:#4042E2"/>
			</linearGradient>
			<path style="fill:url(#SVGID_00000112601752583165592840000017292677145899990189_);" d="M2732.491,1899.919
				c14.183-38.451,42.222-62.883,66.28-93.301c90.153,17.341,233.798,30.919,295.419,39.156
				c19.237,2.57,36.833,12.632,49.511,28.197c50.276,61.726,160.603,230.723,30.746,401.013
				c-16.618-9.786-40.232-25.48-56.269-43.64c14.366-42.966,15.542-97.871-14.566-165.199c-1.028,5.335-2.3,10.619-3.846,15.818
				c-41.498,139.475-43.712,255.541-43.619,282.29c0.013,3.633-2.043,6.904-5.221,8.254c-54.616,23.219-159.75,9.4-195.042,3.821
				c-6.471-1.023-10.826-7.414-9.929-14.292c17.321-133.125-71.572-352.126-95.049-406.978c-3.435-8.024-9.488-14.469-17.056-18.101
				c-3.799-1.824-7.518-3.684-11.198-5.561C2725.452,1920.778,2728.674,1910.269,2732.491,1899.919z"/>
			
				<linearGradient id="SVGID_00000095329434509594806680000015924091446515849663_" gradientUnits="userSpaceOnUse" x1="4380.0361" y1="1685.5974" x2="4283.1577" y2="2104.249" gradientTransform="matrix(-1 0 0 1 7313.7891 0)">
				<stop  offset="0" style="stop-color:#FEBBBA"/>
				<stop  offset="1" style="stop-color:#FF928E"/>
			</linearGradient>
			<path style="fill:url(#SVGID_00000095329434509594806680000015924091446515849663_);" d="M2999.791,1717.696l6.43,119.019
				c0.19,3.51-1.967,6.677-5.18,7.536c-14.237,3.811-53.589,11.392-87.837-9.285c-4.438-2.678-6.493-8.325-5.097-13.535
				l28.64-106.941L2999.791,1717.696z"/>
			<g>
				
					<linearGradient id="SVGID_00000013904631041196484210000007845475221867136143_" gradientUnits="userSpaceOnUse" x1="1852.1494" y1="2394.3706" x2="1691.3163" y2="2607.1396" gradientTransform="matrix(-0.6854 -0.7281 -0.7281 0.6854 5962.7905 1318.7853)">
					<stop  offset="0" style="stop-color:#FEBBBA"/>
					<stop  offset="1" style="stop-color:#FF928E"/>
				</linearGradient>
				<path style="fill:url(#SVGID_00000013904631041196484210000007845475221867136143_);" d="M2929.592,1587.659
					c-1.456,1.455-61.452,126.446-61.452,126.446l68,34.826l73.454-109.504C3009.594,1639.427,2953.969,1563.315,2929.592,1587.659z
					"/>
				
					<linearGradient id="SVGID_00000046318841914006886910000006815305805039817642_" gradientUnits="userSpaceOnUse" x1="1733.0808" y1="2445.7646" x2="1920.8063" y2="2445.7646" gradientTransform="matrix(-0.6854 -0.7281 -0.7281 0.6854 5962.7905 1318.7853)">
					<stop  offset="0" style="stop-color:#090056"/>
					<stop  offset="1" style="stop-color:#020039"/>
				</linearGradient>
				<path style="fill:url(#SVGID_00000046318841914006886910000006815305805039817642_);" d="M2979.506,1642.458
					c1.214,3.329,0.916,7.046-0.814,10.106l-33.916,59.978c-0.515,0.909-1.128,1.733-1.86,2.456
					c-4.037,3.986-17.851,15.583-28.529-0.205c-9.102-13.456-17.642-25.689-26.792-30.734c-5.344-2.946-11.919-0.593-14.633,5.111
					c-5.586,11.749-16.41,35.7-23.209,58.41c-1.705,5.693,1.065,11.803,6.282,14.047c13.769,5.917,40.983,16.62,65.132,20.156
					c3.967,0.581,7.893-1.194,10.255-4.625c10.389-15.101,39.673-57.298,49.667-67.86c9.285-9.814,26.421-6.113,34.143-3.759
					c2.931,0.892,6.052,0.463,8.665-1.207c7.835-5.005,21.506-17.472,8.999-38.579c-3.11-5.248-1.524-12.238,3.357-15.644
					c8.747-6.105,18.239-17.562,9.196-36.118c-9.154-18.783-25.501-20.471-36.635-19.026c-4.927,0.639-9.927-2.102-11.818-6.971
					c-0.841-2.165-2.502-4.011-5.597-4.677c-5.835-1.256-9.666-6.918-8.52-13.117c1.963-10.63,0.485-24.438-15.512-33.769
					c-29.34-17.113-55.04,10.772-61.575,34.312c-6.535,23.54,26.27,40.175,46.904,42.952
					C2967.853,1615.735,2976.163,1633.285,2979.506,1642.458z"/>
				
					<linearGradient id="SVGID_00000017510549803033155050000017175294318691365039_" gradientUnits="userSpaceOnUse" x1="1618.8425" y1="2565.2371" x2="1747.8291" y2="2432.9004" gradientTransform="matrix(-0.6854 -0.7281 -0.7281 0.6854 5962.7905 1318.7853)">
					<stop  offset="0" style="stop-color:#FEBBBA"/>
					<stop  offset="1" style="stop-color:#FF928E"/>
				</linearGradient>
				<path style="fill:url(#SVGID_00000017510549803033155050000017175294318691365039_);" d="M2968.35,1731.324
					c0,0,13.047-40.499,29.747-39.012c16.7,1.486,29.843,19.137,9.147,38.977C2981.5,1755.971,2968.35,1731.324,2968.35,1731.324z"
					/>
			</g>
			
				<linearGradient id="SVGID_00000027591073445197934550000003353307930362088591_" gradientUnits="userSpaceOnUse" x1="3325.1775" y1="1765.0924" x2="2834.6582" y2="2273.9739">
				<stop  offset="0" style="stop-color:#4F52FF"/>
				<stop  offset="1" style="stop-color:#4042E2"/>
			</linearGradient>
			<path style="fill:url(#SVGID_00000027591073445197934550000003353307930362088591_);" d="M3109.12,2055.712
				c22.012-63.911,14.026-141.086,13.942-141.858l-6.064,0.735c0.08,0.758,7.896,76.451-13.616,138.898L3109.12,2055.712z"/>
			<g>
				
					<linearGradient id="SVGID_00000121243544102192849730000018356967373508692888_" gradientUnits="userSpaceOnUse" x1="5351.2393" y1="1599.298" x2="4282.1475" y2="3107.6724" gradientTransform="matrix(-0.985 -0.1723 -0.1723 0.985 7702.6978 665.704)">
					<stop  offset="0" style="stop-color:#090056"/>
					<stop  offset="1" style="stop-color:#020039"/>
				</linearGradient>
				<path style="fill:url(#SVGID_00000121243544102192849730000018356967373508692888_);" d="M2543.457,1781.63
					c4.951-5.117,4.718-13.632-0.507-18.435l-617.264-583.394c-1.732-1.636-4.22-2.009-6.31-0.946
					c-3.669,1.867-4.399,7.075-1.401,9.993l609.262,593.039C2531.851,1786.381,2538.971,1786.267,2543.457,1781.63z"/>
				<g>
					
						<linearGradient id="SVGID_00000181063432351563793610000001525235886693570237_" gradientUnits="userSpaceOnUse" x1="2637.8625" y1="1864.8103" x2="3608.407" y2="2979.6267">
						<stop  offset="0" style="stop-color:#4F52FF"/>
						<stop  offset="1" style="stop-color:#4042E2"/>
					</linearGradient>
					<path style="fill:url(#SVGID_00000181063432351563793610000001525235886693570237_);" d="M2530.414,1843.751
						c85.745,33.17,268.357-37.133,268.357-37.133l12.691,158.322c-146.24,49.177-241.436,34.964-303.365-6.165
						C2504.211,1911.977,2517.439,1871.234,2530.414,1843.751z"/>
					
						<linearGradient id="SVGID_00000082340122878036986060000016879739255149613979_" gradientUnits="userSpaceOnUse" x1="2317.8232" y1="1591.5425" x2="2709.5383" y2="2219.3362">
						<stop  offset="0" style="stop-color:#FEBBBA"/>
						<stop  offset="1" style="stop-color:#FF928E"/>
					</linearGradient>
					<path style="fill:url(#SVGID_00000082340122878036986060000016879739255149613979_);" d="M2393.811,1680.448l35.868-7.565
						c0,0,9.875,121.086,89.81,165.789c3.426,1.917,7.086,3.594,10.926,5.079c-12.975,27.483-26.204,68.226-22.318,115.023
						C2382.251,1875.196,2393.811,1680.448,2393.811,1680.448z"/>
				</g>
				
					<linearGradient id="SVGID_00000103968214634367113410000009875280588339664532_" gradientUnits="userSpaceOnUse" x1="2341.0051" y1="1577.0782" x2="2732.7207" y2="2204.873">
					<stop  offset="0" style="stop-color:#FEBBBA"/>
					<stop  offset="1" style="stop-color:#FF928E"/>
				</linearGradient>
				<path style="fill:url(#SVGID_00000103968214634367113410000009875280588339664532_);" d="M2427.866,1683.44l1.812-10.557
					c0,0,7.463-25.788-12.35-51.153c-28.638-36.664-49.568-23.159-49.568-23.159s1.492,7.848,1.396,14.804
					c-0.077,5.615-6.418,8.462-10.319,4.666l-46.729-45.485c0,0-13.018,72.304,87.156,121.919L2427.866,1683.44z"/>
			</g>
			
				<linearGradient id="SVGID_00000089533840524611893060000006508208141964377235_" gradientUnits="userSpaceOnUse" x1="3175.854" y1="2217.0212" x2="2977.4844" y2="2459.9141">
				<stop  offset="0" style="stop-color:#FEBBBA"/>
				<stop  offset="1" style="stop-color:#FF928E"/>
			</linearGradient>
			<path style="fill:url(#SVGID_00000089533840524611893060000006508208141964377235_);" d="M3118.172,2231.34
				c16.764,18.982,39.61,32.484,56.98,42.714c-25.939,34.014-89.545,85.603-89.545,85.603l-28.883-12.587
				C3056.724,2347.069,3090.033,2315.491,3118.172,2231.34z"/>
			
				<linearGradient id="SVGID_00000016776104663855475290000001912875853551061668_" gradientUnits="userSpaceOnUse" x1="3173.8" y1="2219.8293" x2="2980.2966" y2="2456.7639">
				<stop  offset="0" style="stop-color:#FEBBBA"/>
				<stop  offset="1" style="stop-color:#FF928E"/>
			</linearGradient>
			<path style="fill:url(#SVGID_00000016776104663855475290000001912875853551061668_);" d="M3076.64,2321.155l-19.916,25.914
				c0,0-44.005,20.667-45.301,34.94c-1.296,14.272-6.945,24.026-4.727,27.267c2.217,3.241,34.853,11.69,35.887,1.298
				c1.032-10.392,5.838-27.74,19.527-28.439c13.689-0.698,24.809-13.954,27.899-23.797l20.115-34.156L3076.64,2321.155z"/>
		</g>
	</g>
</g>
</svg>
